<?xml version="1.0" encoding="UTF-8" standalone="no"?>
<!-- Created with Inkscape (http://www.inkscape.org/) -->

<svg
   version="1.1"
   width="1024"
   height="1024"
   id="svg5180"
   xml:space="preserve"
   inkscape:version="1.2.2 (b0a8486541, 2022-12-01)"
   sodipodi:docname="chkl1.svg"
   xmlns:inkscape="http://www.inkscape.org/namespaces/inkscape"
   xmlns:sodipodi="http://sodipodi.sourceforge.net/DTD/sodipodi-0.dtd"
   xmlns="http://www.w3.org/2000/svg"
   xmlns:svg="http://www.w3.org/2000/svg"
   xmlns:rdf="http://www.w3.org/1999/02/22-rdf-syntax-ns#"
   xmlns:cc="http://creativecommons.org/ns#"
   xmlns:dc="http://purl.org/dc/elements/1.1/"><sodipodi:namedview
     pagecolor="#000000"
     bordercolor="#666666"
     borderopacity="1"
     objecttolerance="10"
     gridtolerance="10"
     guidetolerance="10"
     inkscape:pageopacity="1"
     inkscape:pageshadow="2"
     inkscape:window-width="1920"
     inkscape:window-height="988"
     id="namedview102"
     showgrid="false"
     inkscape:zoom="0.65186336"
     inkscape:cx="438.74225"
     inkscape:cy="533.85421"
     inkscape:window-x="0"
     inkscape:window-y="0"
     inkscape:window-maximized="1"
     inkscape:current-layer="pipeson"
     inkscape:object-nodes="true"
     inkscape:snap-smooth-nodes="true"
     inkscape:showpageshadow="2"
     inkscape:pagecheckerboard="0"
     inkscape:deskcolor="#d1d1d1"
     showguides="true" /><metadata
     id="metadata5186"><rdf:RDF><cc:Work
         rdf:about=""><dc:format>image/svg+xml</dc:format><dc:type
           rdf:resource="http://purl.org/dc/dcmitype/StillImage" /><dc:creator><cc:Agent><dc:title>franck.VMD</dc:title></cc:Agent></dc:creator></cc:Work></rdf:RDF></metadata><defs
     id="defs5184" /><rect
     style="fill:#000000;fill-opacity:1;stroke:none;stroke-width:10;stroke-linejoin:round"
     id="fond"
     width="1024"
     height="1024"
     x="0"
     y="0"
     inkscape:label="" /><g
     inkscape:groupmode="layer"
     id="layer"
     inkscape:label="Layer "
     style="display:inline"><text
       xml:space="preserve"
       style="font-size:12.4496px;font-family:'Liberation Sans';-inkscape-font-specification:'Liberation Sans, Normal';white-space:pre;inline-size:291.823;display:inline;fill:#ffffff;stroke-width:9.615"
       x="122.98211"
       y="186.74834"
       id="text3"
       transform="matrix(2.9983481,0,0,3.22512,-94.014385,-521.59345)"
       inkscape:label="0"><tspan
         x="122.98211"
         y="186.74834"
         id="tspan899">PREFLIGHT CHECKLIST</tspan></text><text
       xml:space="preserve"
       style="font-size:37.69px;font-family:'Liberation Sans';-inkscape-font-specification:'Liberation Sans, Normal';display:inline;fill:#ffffff;stroke-width:29.1084"
       x="77.479271"
       y="771.00122"
       id="9b"
       transform="scale(0.93085564,1.0742804)"
       inkscape:label="9b"><tspan
         sodipodi:role="line"
         id="tspan6-0-2"
         x="77.479271"
         y="771.00122"
         style="fill:#ffffff;stroke-width:29.1084">Beacon ............................................................ON      CM1 </tspan></text><rect
       style="fill:#999999;stroke-width:11.1528"
       id="rect9"
       width="50"
       height="50"
       x="12"
       y="790"
       inkscape:label="9" /><text
       xml:space="preserve"
       style="font-size:37.69px;font-family:'Liberation Sans';-inkscape-font-specification:'Liberation Sans, Normal';fill:#ffffff;stroke-width:29.1084"
       x="79.724464"
       y="695.66504"
       id="8b"
       transform="scale(0.93085585,1.0742802)"
       inkscape:label="8b"><tspan
         sodipodi:role="line"
         id="tspan6-0"
         x="79.724464"
         y="695.66504"
         style="stroke-width:29.1084">Taxi and T/O briefing ............................Completed     CM1 </tspan></text><rect
       style="fill:#999999;stroke-width:11.1528"
       id="rect8"
       width="50"
       height="50"
       x="12"
       y="710"
       inkscape:label="8" /><text
       xml:space="preserve"
       style="font-size:37.69px;font-family:'Liberation Sans';-inkscape-font-specification:'Liberation Sans, Normal';fill:#ffffff;stroke-width:29.1084"
       x="79.724464"
       y="621.19653"
       id="7b"
       transform="scale(0.93085585,1.0742802)"
       inkscape:label="7b"><tspan
         sodipodi:role="line"
         id="tspan6-9"
         x="79.724464"
         y="621.19653"
         style="stroke-width:29.1084">Trim .............................................___ Units, 0, 0      BOTH </tspan></text><rect
       style="fill:#999999;stroke-width:11.1528"
       id="rect7"
       width="50"
       height="50"
       x="12"
       y="630"
       inkscape:label="7" /><text
       xml:space="preserve"
       style="font-size:37.69px;font-family:'Liberation Sans';-inkscape-font-specification:'Liberation Sans, Normal';fill:#ffffff;stroke-width:29.1084"
       x="77.479256"
       y="546.72809"
       id="6b"
       transform="scale(0.93085585,1.0742802)"
       inkscape:label="6b"><tspan
         sodipodi:role="line"
         id="tspan6-7"
         x="77.479256"
         y="546.72809"
         style="stroke-width:29.1084">Fuel ............................................... ___._  Tonnes      CM1 </tspan></text><rect
       style="fill:#999999;stroke-width:11.1528"
       id="rect6"
       width="50"
       height="50"
       x="12"
       y="550"
       inkscape:label="6" /><text
       xml:space="preserve"
       style="font-size:37.69px;font-family:'Liberation Sans';-inkscape-font-specification:'Liberation Sans, Normal';fill:#ffffff;stroke-width:29.1084"
       x="78.657066"
       y="472.25961"
       id="5b"
       transform="scale(0.93085585,1.0742802)"
       inkscape:label="5b"><tspan
         sodipodi:role="line"
         id="tspan6-1"
         x="78.657066"
         y="472.25961"
         style="stroke-width:29.1084">CDU pre-flight ......................................Completed      CM1 </tspan></text><rect
       style="fill:#999999;stroke-width:11.1528"
       id="rect5"
       width="50"
       height="50"
       x="12"
       y="470"
       inkscape:label="5" /><text
       xml:space="preserve"
       style="font-size:37.69px;font-family:'Liberation Sans';-inkscape-font-specification:'Liberation Sans, Normal';fill:#ffffff;stroke-width:29.1084"
       x="79.724464"
       y="397.79117"
       id="4b"
       transform="scale(0.93085585,1.0742802)"
       inkscape:label="4b"><tspan
         sodipodi:role="line"
         id="tspan6-62"
         x="79.724464"
         y="397.79117"
         style="stroke-width:29.1084">T/O speeds  ........................V1 ___,VR___,V2 ___     CM1 </tspan></text><rect
       style="fill:#999999;stroke-width:11.1528"
       id="rect4"
       width="50"
       height="50"
       x="12"
       y="390"
       inkscape:label="4" /><text
       xml:space="preserve"
       style="font-size:37.69px;font-family:'Liberation Sans';-inkscape-font-specification:'Liberation Sans, Normal';fill:#ffffff;stroke-width:29.1084"
       x="77.479256"
       y="323.32269"
       id="3b"
       transform="scale(0.93085585,1.0742802)"
       inkscape:label="3b"><tspan
         sodipodi:role="line"
         id="tspan6-5"
         x="77.479256"
         y="323.32269"
         style="stroke-width:29.1084">MCP ......................V2___,HDG/TRK ___, ALT ___     CM1 </tspan></text><rect
       style="fill:#999999;stroke-width:11.1528"
       id="rect3"
       width="50"
       height="50"
       x="12"
       y="310"
       inkscape:label="3" /><text
       xml:space="preserve"
       style="font-size:37.69px;font-family:'Liberation Sans';-inkscape-font-specification:'Liberation Sans, Normal';fill:#ffffff;stroke-width:29.1084"
       x="77.479256"
       y="248.85422"
       id="2b"
       transform="scale(0.93085585,1.0742802)"
       inkscape:label="2b"><tspan
         sodipodi:role="line"
         id="tspan6-6"
         x="77.479256"
         y="248.85422"
         style="stroke-width:29.1084">Passenger signs ..........................................AUTO      CM1 </tspan></text><rect
       style="fill:#999999;stroke-width:11.1528"
       id="rect2"
       width="50"
       height="50"
       x="12"
       y="230"
       inkscape:label="2" /><text
       xml:space="preserve"
       style="font-size:37.69px;font-family:'Liberation Sans';-inkscape-font-specification:'Liberation Sans, Normal';display:inline;fill:#00ff00;stroke-width:29.1084;image-rendering:auto"
       x="77.479256"
       y="174.38576"
       id="1b"
       transform="scale(0.93085585,1.0742802)"
       inkscape:label="1b"><tspan
         sodipodi:role="line"
         id="tspan6-75"
         x="77.479256"
         y="174.38576"
         style="fill:#00ff00;stroke-width:29.1084">Flight deck door .......................Closed and locked      CM2 </tspan></text><rect
       style="fill:#999999;stroke-width:11.1528"
       id="rect1"
       width="50"
       height="50"
       x="12"
       y="150"
       inkscape:label="1" /></g><g
     id="pipeson"
     inkscape:label="pipeson"
     inkscape:highlight-color="#1039aa"
     style="display:inline;image-rendering:auto"><path
       id="opened11v"
       style="font-size:37.69px;font-family:'Liberation Sans';-inkscape-font-specification:'Liberation Sans, Normal';display:inline;fill:#00ff00;stroke-width:36.7059;image-rendering:auto"
       inkscape:label="#opened11v"
       d="m 265.72336,885.4187 h 463.28659 v 58.45149 H 265.72336 Z" /><path
       id="opened10v"
       d="m 721.48666,841.03463 v 23.05936 h -3.49663 v -23.05936 h -8.90721 v -2.87091 h 21.31104 v 2.87091 z m -35.29758,23.05936 v -25.93027 h 19.67315 v 2.87091 h -16.15812 v 8.31831 h 15.05392 v 2.83411 h -15.05392 v 9.03603 h 16.91265 v 2.87091 z m -20.9614,0 v -25.93027 h 3.51504 v 23.05936 h 13.10316 v 2.87091 z m -5.07929,-18.12727 q 0,3.68067 -2.41084,5.85226 -2.39243,2.17159 -6.51477,2.17159 h -7.61898 v 10.10342 h -3.51503 v -25.93027 h 10.91317 q 4.36158,0 6.75401,2.04277 2.39244,2.04276 2.39244,5.76023 z m -3.53344,0.0368 q 0,-5.02411 -6.03629,-5.02411 h -6.97486 v 10.23225 h 7.12209 q 5.88906,0 5.88906,-5.20814 z m -25.87506,18.09047 v -17.29912 q 0,-2.87091 0.16563,-5.52099 -0.90177,3.29419 -1.6195,5.15293 l -6.6988,17.66718 h -2.46605 l -6.79082,-17.66718 -1.03059,-3.12857 -0.60731,-2.02436 0.0552,2.04277 0.0736,3.47822 v 17.29912 h -3.12856 v -25.93027 h 4.61923 l 6.90125,17.98004 q 0.36806,1.0858 0.69932,2.33722 0.34967,1.23302 0.46009,1.78512 0.14722,-0.73613 0.60731,-2.2268 0.47848,-1.50907 0.64411,-1.89554 l 6.77242,-17.98004 h 4.50882 v 25.93027 z m -26.94247,-13.08476 q 0,4.06714 -1.56428,7.12209 -1.54588,3.05495 -4.45361,4.69285 -2.90772,1.63789 -6.86444,1.63789 -3.99352,0 -6.90124,-1.61949 -2.88932,-1.61949 -4.4168,-4.67444 -1.52747,-3.07336 -1.52747,-7.1589 0,-6.22032 3.40461,-9.71695 3.40461,-3.51503 9.47771,-3.51503 3.95671,0 6.86444,1.58268 2.90772,1.56428 4.4352,4.56403 1.54588,2.99974 1.54588,7.08527 z m -3.58865,0 q 0,-4.84007 -2.42924,-7.60057 -2.41083,-2.7605 -6.82763,-2.7605 -4.4536,0 -6.88284,2.7237 -2.42924,2.72369 -2.42924,7.63737 0,4.87688 2.44764,7.7478 2.46605,2.85252 6.82763,2.85252 4.49041,0 6.88285,-2.7605 2.41083,-2.7789 2.41083,-7.83982 z m -36.56739,-10.36107 q -4.30638,0 -6.69881,2.77891 -2.39243,2.76049 -2.39243,7.58216 0,4.76646 2.48445,7.67419 2.50285,2.88932 6.75401,2.88932 5.44739,0 8.18948,-5.39217 l 2.87092,1.43546 q -1.60109,3.3494 -4.50881,5.09772 -2.88933,1.74831 -6.71722,1.74831 -3.9199,0 -6.79082,-1.61949 -2.85252,-1.6379 -4.36159,-4.65604 -1.49067,-3.03655 -1.49067,-7.1773 0,-6.20191 3.34941,-9.71695 3.3494,-3.51503 9.27527,-3.51503 4.14075,0 6.91965,1.61949 2.7789,1.61949 4.08554,4.80327 l -3.331,1.10419 q -0.90177,-2.2636 -2.90773,-3.45982 -1.98756,-1.19622 -4.72965,-1.19622 z m -34.13817,0.38647 v 23.05936 h -3.49663 v -23.05936 h -8.9072 v -2.87091 h 21.31104 v 2.87091 z m -14.9803,15.90047 q 0,3.58865 -2.8157,5.55781 -2.79731,1.96915 -7.89503,1.96915 -9.47771,0 -10.98678,-6.58839 l 3.40461,-0.68092 q 0.58891,2.33722 2.50286,3.44142 1.91394,1.0858 5.20814,1.0858 3.40461,0 5.24494,-1.15941 1.85874,-1.17782 1.85874,-3.44142 0,-1.26983 -0.58891,-2.06118 -0.5705,-0.79134 -1.61949,-1.30663 -1.04899,-0.51529 -2.50285,-0.86496 -1.45387,-0.34966 -3.22058,-0.75453 -3.07336,-0.68093 -4.67445,-1.36185 -1.58268,-0.68092 -2.50285,-1.50907 -0.92016,-0.84655 -1.41705,-1.96916 -0.47849,-1.1226 -0.47849,-2.57646 0,-3.331 2.53966,-5.13453 2.55806,-1.80352 7.30612,-1.80352 4.41679,0 6.75401,1.36184 2.33723,1.34345 3.27579,4.60083 l -3.45982,0.60731 q -0.5705,-2.06117 -2.17159,-2.98134 -1.60109,-0.93856 -4.4352,-0.93856 -3.11016,0 -4.74806,1.03058 -1.63789,1.03059 -1.63789,3.07336 0,1.19621 0.62571,1.98755 0.64412,0.77294 1.84033,1.32504 1.19622,0.5337 4.76646,1.32504 1.19622,0.27605 2.37403,0.5705 1.19622,0.27605 2.28201,0.68093 1.0858,0.38647 2.02437,0.92016 0.95697,0.5337 1.6563,1.30664 0.69932,0.77294 1.08579,1.82193 0.40487,1.04899 0.40487,2.46604 z m -30.40229,7.15889 v -25.93027 h 3.51504 v 25.93027 z m -21.34785,0 v -25.93027 h 3.51504 v 23.05936 h 13.10316 v 2.87091 z m -7.87661,0 -10.36107,-12.51425 -3.38621,2.57646 v 9.93779 h -3.51504 v -25.93027 h 3.51504 v 12.99274 l 12.49585,-12.99274 h 4.14075 l -11.042,11.26283 12.51426,14.66744 z m -32.99715,-23.44583 q -4.30638,0 -6.69881,2.77891 -2.39243,2.76049 -2.39243,7.58216 0,4.76646 2.48445,7.67419 2.50285,2.88932 6.75401,2.88932 5.44739,0 8.18948,-5.39217 l 2.87092,1.43546 q -1.60109,3.3494 -4.50881,5.09772 -2.88933,1.74831 -6.71722,1.74831 -3.9199,0 -6.79082,-1.61949 -2.85252,-1.6379 -4.36159,-4.65604 -1.49067,-3.03655 -1.49067,-7.1773 0,-6.20191 3.34941,-9.71695 3.3494,-3.51503 9.27527,-3.51503 4.14075,0 6.91965,1.61949 2.7789,1.61949 4.08554,4.80327 l -3.33101,1.10419 q -0.90176,-2.2636 -2.90772,-3.45982 -1.98756,-1.19622 -4.72965,-1.19622 z m -36.62261,23.44583 v -25.93027 h 19.67315 v 2.87091 h -16.15812 v 8.31831 h 15.05392 v 2.83411 h -15.05392 v 9.03603 h 16.91265 v 2.87091 z m -9.68015,0 v -12.01736 h -14.02333 v 12.01736 h -3.51503 v -25.93027 h 3.51503 v 10.96838 h 14.02333 v -10.96838 h 3.51503 v 25.93027 z m -33.2732,-23.44583 q -4.30638,0 -6.69881,2.77891 -2.39243,2.76049 -2.39243,7.58216 0,4.76646 2.48445,7.67419 2.50285,2.88932 6.75402,2.88932 5.44738,0 8.18947,-5.39217 l 2.87092,1.43546 q -1.60109,3.3494 -4.50881,5.09772 -2.88932,1.74831 -6.71721,1.74831 -3.91991,0 -6.79083,-1.61949 -2.85251,-1.6379 -4.36159,-4.65604 -1.49067,-3.03655 -1.49067,-7.1773 0,-6.20191 3.34941,-9.71695 3.3494,-3.51503 9.27527,-3.51503 4.14075,0 6.91965,1.61949 2.7789,1.61949 4.08554,4.80327 l -3.331,1.10419 q -0.90177,-2.2636 -2.90773,-3.45982 -1.98756,-1.19622 -4.72965,-1.19622 z"
       style="display:inline;image-rendering:auto;font-size:37.69px;font-family:'Liberation Sans';-inkscape-font-specification:'Liberation Sans, Normal';fill:#ffffff;stroke-width:29.1084"
       inkscape:label="#opened10v"
       transform="scale(0.93085585,1.0742802)" /><text
       xml:space="preserve"
       style="font-size:37.69px;font-family:'Liberation Sans';-inkscape-font-specification:'Liberation Sans, Normal';fill:#00ff00;stroke-width:29.1084"
       x="77.479256"
       y="771.0014"
       id="opened9v"
       transform="scale(0.93085585,1.0742802)"
       inkscape:label="#opened9v"><tspan
         sodipodi:role="line"
         id="tspan6-0-2-6"
         x="77.479256"
         y="771.0014"
         style="fill:#00ff00;stroke-width:29.1084">Beacon ............................................................ON      CM1 </tspan></text><text
       xml:space="preserve"
       style="font-size:37.69px;font-family:'Liberation Sans';-inkscape-font-specification:'Liberation Sans, Normal';fill:#00ff00;stroke-width:29.1084"
       x="79.724464"
       y="695.66504"
       id="opened8v"
       transform="scale(0.93085585,1.0742802)"
       inkscape:label="#opened8v"><tspan
         sodipodi:role="line"
         id="tspan6-0-6"
         x="79.724464"
         y="695.66504"
         style="fill:#00ff00;stroke-width:29.1084">Taxi and T/O briefing ............................Completed     CM1 </tspan></text><text
       xml:space="preserve"
       style="font-size:37.69px;font-family:'Liberation Sans';-inkscape-font-specification:'Liberation Sans, Normal';fill:#00ff00;stroke-width:29.1084"
       x="79.724464"
       y="621.19653"
       id="opened7v"
       transform="scale(0.93085585,1.0742802)"
       inkscape:label="#opened7v"><tspan
         sodipodi:role="line"
         id="tspan6-9-6"
         x="79.724464"
         y="621.19653"
         style="fill:#00ff00;stroke-width:29.1084">Trim .............................................___ Units, 0, 0      BOTH </tspan></text><text
       xml:space="preserve"
       style="font-size:37.69px;font-family:'Liberation Sans';-inkscape-font-specification:'Liberation Sans, Normal';fill:#00ff00;stroke-width:29.1084"
       x="77.479256"
       y="546.72809"
       id="opened6v"
       transform="scale(0.93085585,1.0742802)"
       inkscape:label="#opened6v"><tspan
         sodipodi:role="line"
         id="tspan6-7-9"
         x="77.479256"
         y="546.72809"
         style="fill:#00ff00;stroke-width:29.1084">Fuel ............................................... ___._  Tonnes      CM1 </tspan></text><text
       xml:space="preserve"
       style="font-size:37.69px;font-family:'Liberation Sans';-inkscape-font-specification:'Liberation Sans, Normal';fill:#00ff00;stroke-width:29.1084"
       x="78.657066"
       y="472.25961"
       id="opened5v"
       transform="scale(0.93085585,1.0742802)"
       inkscape:label="#opened5v"><tspan
         sodipodi:role="line"
         id="tspan6-1-7"
         x="78.657066"
         y="472.25961"
         style="fill:#00ff00;stroke-width:29.1084">CDU pre-flight ......................................Completed      CM1 </tspan></text><text
       xml:space="preserve"
       style="font-size:37.69px;font-family:'Liberation Sans';-inkscape-font-specification:'Liberation Sans, Normal';fill:#00ff00;stroke-width:29.1084"
       x="79.724464"
       y="397.79117"
       id="opened4v"
       transform="scale(0.93085585,1.0742802)"
       inkscape:label="#opened4v"><tspan
         sodipodi:role="line"
         id="tspan6-62-1"
         x="79.724464"
         y="397.79117"
         style="fill:#00ff00;stroke-width:29.1084">T/O speeds  ........................V1 ___,VR___,V2 ___     CM1 </tspan></text><text
       xml:space="preserve"
       style="font-size:37.69px;font-family:'Liberation Sans';-inkscape-font-specification:'Liberation Sans, Normal';fill:#00ff00;stroke-width:29.1084"
       x="77.479256"
       y="323.32269"
       id="opened3v"
       transform="scale(0.93085585,1.0742802)"
       inkscape:label="#opened3v"><tspan
         sodipodi:role="line"
         id="tspan6-5-2"
         x="77.479256"
         y="323.32269"
         style="fill:#00ff00;stroke-width:29.1084">MCP ......................V2___,HDG/TRK ___, ALT ___     CM1 </tspan></text><text
       xml:space="preserve"
       style="font-size:37.69px;font-family:'Liberation Sans';-inkscape-font-specification:'Liberation Sans, Normal';fill:#00ff00;stroke-width:29.1084"
       x="77.479256"
       y="248.85422"
       id="opened2v"
       transform="scale(0.93085585,1.0742802)"
       inkscape:label="#opened2v"><tspan
         sodipodi:role="line"
         id="tspan6-6-5"
         x="77.479256"
         y="248.85422"
         style="fill:#00ff00;stroke-width:29.1084">Passenger signs ..........................................AUTO      CM1 </tspan></text><text
       xml:space="preserve"
       style="font-size:37.69px;font-family:'Liberation Sans';-inkscape-font-specification:'Liberation Sans, Normal';display:inline;fill:#ffffff;stroke-width:29.1084"
       x="77.479256"
       y="174.38576"
       id="opened1v"
       transform="scale(0.93085585,1.0742802)"
       inkscape:label="#opened1v"><tspan
         sodipodi:role="line"
         id="tspan6"
         x="77.479256"
         y="174.38576"
         style="stroke-width:29.1084">Flight deck door .......................Closed and locked      CM2 </tspan></text></g></svg>
