<?xml version="1.0" encoding="UTF-8" standalone="no"?>
<!-- Created with Inkscape (http://www.inkscape.org/) -->

<svg
   xmlns:dc="http://purl.org/dc/elements/1.1/"
   xmlns:cc="http://creativecommons.org/ns#"
   xmlns:rdf="http://www.w3.org/1999/02/22-rdf-syntax-ns#"
   xmlns:svg="http://www.w3.org/2000/svg"
   xmlns="http://www.w3.org/2000/svg"
   xmlns:sodipodi="http://sodipodi.sourceforge.net/DTD/sodipodi-0.dtd"
   xmlns:inkscape="http://www.inkscape.org/namespaces/inkscape"
   version="1.1"
   width="1024"
   height="1024"
   id="svg5180"
   xml:space="preserve"
   inkscape:version="0.92.3 (2405546, 2018-03-11)"
   sodipodi:docname="gear.svg"><sodipodi:namedview
   pagecolor="#ffffff"
   bordercolor="#666666"
   borderopacity="1"
   objecttolerance="10"
   gridtolerance="10"
   guidetolerance="10"
   inkscape:pageopacity="0"
   inkscape:pageshadow="2"
   inkscape:window-width="1920"
   inkscape:window-height="960"
   id="namedview102"
   showgrid="false"
   inkscape:zoom="0.65186336"
   inkscape:cx="586.86069"
   inkscape:cy="456.494"
   inkscape:window-x="0"
   inkscape:window-y="27"
   inkscape:window-maximized="1"
   inkscape:current-layer="layer1" /><metadata
   id="metadata5186"><rdf:RDF><cc:Work
       rdf:about=""><dc:format>image/svg+xml</dc:format><dc:type
         rdf:resource="http://purl.org/dc/dcmitype/StillImage" /><dc:title /><dc:creator><cc:Agent><dc:title>Gijs de Rooy</dc:title></cc:Agent></dc:creator></cc:Work></rdf:RDF></metadata><defs
   id="defs5184">














































































































</defs>














































































































































































































<g
   inkscape:groupmode="layer"
   id="layer3"
   inkscape:label="Layer#2"
   style="display:inline"
   sodipodi:insensitive="true"><path
     d="M 0.6889911,-1.3037388 V 1026.4766 c 0,0 830.8602489,-0.3714 1027.8538089,0 V -1.3037388"
     id="bg"
     style="fill:#000000;fill-opacity:1;fill-rule:evenodd;stroke:none;stroke-width:1.00372744"
     inkscape:label="path5356"
     inkscape:connector-curvature="0"
     sodipodi:insensitive="true" /></g><g
   inkscape:groupmode="layer"
   id="layer1"
   inkscape:label="Layer"
   style="display:inline">























<text
   xml:space="preserve"
   style="font-style:normal;font-variant:normal;font-weight:normal;font-stretch:normal;font-size:15.7395525px;line-height:0%;font-family:'Liberation Sans';-inkscape-font-specification:'Liberation Sans';text-align:start;letter-spacing:0px;word-spacing:0px;writing-mode:lr-tb;text-anchor:start;display:inline;fill:#50c8ff;fill-opacity:1;stroke:none;stroke-width:1.3116293"
   x="366.98129"
   y="392.23694"
   id="text3873"><tspan
     sodipodi:role="line"
     id="tspan3875"
     x="366.98129"
     y="392.23694"
     style="font-size:45.9070282px;line-height:1.25;fill:#50c8ff;fill-opacity:1;stroke-width:1.3116293">BRAKE TEMP</tspan></text>






<text
   id="text3898"
   y="457.68503"
   x="366.98129"
   style="font-style:normal;font-variant:normal;font-weight:normal;font-stretch:normal;font-size:15.7395525px;line-height:0%;font-family:'Liberation Sans';-inkscape-font-specification:'Liberation Sans';text-align:start;letter-spacing:0px;word-spacing:0px;writing-mode:lr-tb;text-anchor:start;display:inline;fill:#50c8ff;fill-opacity:1;stroke:none;stroke-width:1.3116293"
   xml:space="preserve"><tspan
     style="font-size:45.9070282px;line-height:1.25;fill:#50c8ff;fill-opacity:1;stroke-width:1.3116293"
     y="457.68503"
     x="366.98129"
     id="tspan3900"
     sodipodi:role="line">TIRE PRESS</tspan></text>






<text
   xml:space="preserve"
   style="font-style:normal;font-variant:normal;font-weight:normal;font-stretch:normal;font-size:15.7395525px;line-height:0%;font-family:'Liberation Sans';-inkscape-font-specification:'Liberation Sans';text-align:start;letter-spacing:0px;word-spacing:0px;writing-mode:lr-tb;text-anchor:start;display:inline;fill:#50c8ff;fill-opacity:1;stroke:none;stroke-width:1.3116293"
   x="355.91458"
   y="932.89526"
   id="text3902"><tspan
     sodipodi:role="line"
     id="tspan3904"
     x="355.91458"
     y="932.89526"
     style="font-size:45.9070282px;line-height:1.25;fill:#50c8ff;fill-opacity:1;stroke-width:1.3116293">GEAR DOORS</tspan></text>






<path
   style="display:inline;fill:none;stroke:#50c8ff;stroke-width:5.24651718;stroke-linecap:butt;stroke-linejoin:miter;stroke-miterlimit:4;stroke-dasharray:none;stroke-opacity:1"
   d="M 202.35768,461.78813 V 379.29189 H 366.84913"
   id="path3972"
   inkscape:connector-curvature="0" /><path
   inkscape:connector-curvature="0"
   id="path3974"
   d="m 279.82383,486.43627 v -42.75649 h 88.53498"
   style="display:inline;fill:none;stroke:#50c8ff;stroke-width:5.24651718;stroke-linecap:butt;stroke-linejoin:miter;stroke-miterlimit:4;stroke-dasharray:none;stroke-opacity:1"
   sodipodi:nodetypes="ccc" /><path
   inkscape:connector-curvature="0"
   id="path3980"
   d="M 817.95913,461.78813 V 379.29189 H 653.46768"
   style="display:inline;fill:none;stroke:#50c8ff;stroke-width:5.24651718;stroke-linecap:butt;stroke-linejoin:miter;stroke-miterlimit:4;stroke-dasharray:none;stroke-opacity:1" /><path
   sodipodi:nodetypes="ccc"
   style="display:inline;fill:none;stroke:#50c8ff;stroke-width:5.24651718;stroke-linecap:butt;stroke-linejoin:miter;stroke-miterlimit:4;stroke-dasharray:none;stroke-opacity:1"
   d="M 740.49298,486.43627 V 443.67978 H 651.958"
   id="path3982"
   inkscape:connector-curvature="0" /><path
   inkscape:connector-curvature="0"
   id="path3984"
   d="M 250.7332,917.10438 H 356.17902"
   style="display:inline;fill:none;stroke:#50c8ff;stroke-width:5.24651718;stroke-linecap:butt;stroke-linejoin:miter;stroke-miterlimit:4;stroke-dasharray:none;stroke-opacity:1"
   sodipodi:nodetypes="cc" /><path
   sodipodi:nodetypes="cc"
   style="display:inline;fill:none;stroke:#50c8ff;stroke-width:5.24651718;stroke-linecap:butt;stroke-linejoin:miter;stroke-miterlimit:4;stroke-dasharray:none;stroke-opacity:1"
   d="M 662.21232,917.10438 H 767.65814"
   id="path3986"
   inkscape:connector-curvature="0" />




























































































<rect
   y="892.95575"
   x="782.25653"
   height="50.6222"
   width="155.55269"
   id="rect1069"
   style="display:inline;fill:none;stroke:#ffffff;stroke-width:5.24651718;stroke-linecap:butt;stroke-linejoin:miter;stroke-miterlimit:4;stroke-dasharray:none;stroke-dashoffset:0;stroke-opacity:1" /><rect
   style="display:inline;fill:none;stroke:#ffffff;stroke-width:5.24651718;stroke-linecap:butt;stroke-linejoin:miter;stroke-miterlimit:4;stroke-dasharray:none;stroke-dashoffset:0;stroke-opacity:1"
   id="rect5469"
   width="155.55269"
   height="50.6222"
   x="436.17136"
   y="176.63991" /><rect
   y="893.89661"
   x="84.499115"
   height="50.6222"
   width="155.55269"
   id="rect1377"
   style="display:inline;fill:none;stroke:#ffffff;stroke-width:5.24651718;stroke-linecap:butt;stroke-linejoin:miter;stroke-miterlimit:4;stroke-dasharray:none;stroke-dashoffset:0;stroke-opacity:1" /><path
   id="ellipse436"
   style="display:inline;fill:none;stroke:#ffbf00;stroke-width:5.24651718;stroke-linecap:butt;stroke-linejoin:miter;stroke-miterlimit:4;stroke-dasharray:none;stroke-dashoffset:0;stroke-opacity:1"
   d="m 872.5638,625.70375 c 0,5.88374 -4.76974,10.65346 -10.65344,10.65348 -5.88371,-2e-5 -10.65345,-4.76974 -10.65345,-10.65348 0,-5.88373 4.76974,-10.65346 10.65345,-10.65347 5.8837,10e-6 10.65344,4.76974 10.65344,10.65347 z M 821.54326,513.55513 c 11.72479,0 21.1638,11.18418 21.1638,25.07665 v 48.37432 c 0,13.89247 -9.43901,25.07665 -21.1638,25.07665 -11.72479,0 -21.16393,-11.18418 -21.16393,-25.07665 v -48.37432 c 0,-13.89247 9.43914,-25.07665 21.16393,-25.07665 z m 81.80986,2e-5 c 11.72479,0 21.16392,11.18419 21.16392,25.07665 v 48.37433 c 0,13.89247 -9.43913,25.07665 -21.16392,25.07665 -11.72478,0 -21.1638,-11.18418 -21.1638,-25.07665 V 538.6318 c 0,-13.89246 9.43902,-25.07665 21.1638,-25.07665 z m -60.46822,49.85897 h 38.6839 m -19.93809,51.42637 v -49.04577 m -40.08745,-52.23959 c 11.72479,0 21.1638,11.18418 21.1638,25.07665 v 48.37432 c 0,13.89247 -9.43901,25.07665 -21.1638,25.07665 -11.72479,0 -21.16393,-11.18418 -21.16393,-25.07665 v -48.37432 c 0,-13.89247 9.43914,-25.07665 21.16393,-25.07665 z m 81.80986,2e-5 c 11.72479,0 21.16392,11.18419 21.16392,25.07665 v 48.37433 c 0,13.89247 -9.43913,25.07665 -21.16392,25.07665 -11.72478,0 -21.1638,-11.18418 -21.1638,-25.07665 V 538.6318 c 0,-13.89246 9.43902,-25.07665 21.1638,-25.07665 z m -60.46822,49.85897 h 38.6839 m -19.93809,51.42637 v -49.04577 m -18.74581,-2.3806 h 38.6839 m -706.88155,62.28962 c 0,5.88375 -4.76972,10.65347 -10.65347,10.65347 -5.88374,0 -10.65347,-4.76972 -10.65347,-10.65347 0,-5.88374 4.76973,-10.65347 10.65347,-10.65347 5.88375,0 10.65347,4.76973 10.65347,10.65347 z M 123.66674,513.55513 c 11.72477,0 21.16386,11.18418 21.16386,25.07665 v 48.37432 c 0,13.89247 -9.43909,25.07665 -21.16386,25.07665 -11.72479,0 -21.16387,-11.18418 -21.16387,-25.07665 v -48.37432 c 0,-13.89247 9.43908,-25.07665 21.16387,-25.07665 z m 81.80984,2e-5 c 11.72479,0 21.16393,11.18419 21.16393,25.07665 v 48.37433 c 0,13.89247 -9.43914,25.07665 -21.16393,25.07665 -11.72477,0 -21.16384,-11.18418 -21.16384,-25.07665 V 538.6318 c 0,-13.89246 9.43907,-25.07665 21.16384,-25.07665 z m -60.46814,49.85897 h 38.68389 m -19.93808,51.42637 v -49.04577 m -40.08751,-52.23959 c 11.72477,0 21.16386,11.18418 21.16386,25.07665 v 48.37432 c 0,13.89247 -9.43909,25.07665 -21.16386,25.07665 -11.72479,0 -21.16387,-11.18418 -21.16387,-25.07665 v -48.37432 c 0,-13.89247 9.43908,-25.07665 21.16387,-25.07665 z m 81.80984,2e-5 c 11.72479,0 21.16393,11.18419 21.16393,25.07665 v 48.37433 c 0,13.89247 -9.43914,25.07665 -21.16393,25.07665 -11.72477,0 -21.16384,-11.18418 -21.16384,-25.07665 V 538.6318 c 0,-13.89246 9.43907,-25.07665 21.16384,-25.07665 z m -60.46814,49.85897 h 38.68389 m -19.93808,51.42637 v -49.04577 m -18.74581,-2.3806 h 38.68389 m 637.85093,175.33145 c 11.72479,0 21.1638,-11.18418 21.1638,-25.07665 v -48.37433 c 0,-13.89247 -9.43901,-25.07665 -21.1638,-25.07665 -11.72479,0 -21.16393,11.18418 -21.16393,25.07665 v 48.37433 c 0,13.89247 9.43914,25.07665 21.16393,25.07665 z m 81.80986,-7e-5 c 11.72479,0 21.16392,-11.1842 21.16392,-25.07665 v -48.37434 c 0,-13.89247 -9.43913,-25.07665 -21.16392,-25.07665 -11.72478,0 -21.1638,11.18418 -21.1638,25.07665 v 48.37434 c 0,13.89245 9.43902,25.07665 21.1638,25.07665 z M 842.8849,688.88657 h 38.6839 M 861.63071,637.4602 v 49.04575 m 41.72241,52.23955 c 11.72479,0 21.16392,-11.1842 21.16392,-25.07665 v -48.37434 c 0,-13.89247 -9.43913,-25.07665 -21.16392,-25.07665 -11.72478,0 -21.1638,11.18418 -21.1638,25.07665 v 48.37434 c 0,13.89245 9.43902,25.07665 21.1638,25.07665 z M 842.8849,688.88657 h 38.6839 M 861.63071,637.4602 v 49.04575 m 10.93309,64.67025 c 0,5.88373 -4.76974,10.65346 -10.65344,10.65347 -5.88371,-10e-6 -10.65345,-4.76974 -10.65345,-10.65347 0,-5.88373 4.76974,-10.65346 10.65345,-10.65347 5.8837,10e-6 10.65344,4.76974 10.65344,10.65347 z m 30.78932,111.85146 c 11.72479,0 21.16392,-11.18419 21.16392,-25.07665 v -48.37433 c 0,-13.89247 -9.43913,-25.07665 -21.16392,-25.07665 -11.72478,0 -21.1638,11.18418 -21.1638,25.07665 v 48.37433 c 0,13.89246 9.43902,25.07665 21.1638,25.07665 z M 842.8849,813.16869 h 38.6839 m -19.93809,-51.42637 v 49.04577 m 41.72241,52.23957 c 11.72479,0 21.16392,-11.18419 21.16392,-25.07665 v -48.37433 c 0,-13.89247 -9.43913,-25.07665 -21.16392,-25.07665 -11.72478,0 -21.1638,11.18418 -21.1638,25.07665 v 48.37433 c 0,13.89246 9.43902,25.07665 21.1638,25.07665 z M 842.8849,813.16869 h 38.6839 m -19.93809,-51.42637 v 49.04577 m 41.72241,-171.76053 c 11.72479,0 21.16392,11.18418 21.16392,25.07665 v 48.37433 c 0,13.89246 -9.43913,25.07665 -21.16392,25.07665 -11.72478,0 -21.1638,-11.18419 -21.1638,-25.07665 v -48.37433 c 0,-13.89247 9.43902,-25.07665 21.1638,-25.07665 z m -60.46822,49.85899 h 38.6839 m -19.93809,51.42637 v -49.04576 m 41.72241,-52.2396 c 11.72479,0 21.16392,11.18418 21.16392,25.07665 v 48.37433 c 0,13.89246 -9.43913,25.07665 -21.16392,25.07665 -11.72478,0 -21.1638,-11.18419 -21.1638,-25.07665 v -48.37433 c 0,-13.89247 9.43902,-25.07665 21.1638,-25.07665 z m -60.46822,49.85899 h 38.6839 m -19.93809,51.42637 v -49.04576 m -18.74581,-2.38061 h 38.6839 M 205.47658,738.7455 c 11.72479,0 21.16393,-11.1842 21.16393,-25.07665 v -48.37434 c 0,-13.89247 -9.43914,-25.07665 -21.16393,-25.07665 -11.72477,0 -21.16384,11.18418 -21.16384,25.07665 v 48.37434 c 0,13.89245 9.43907,25.07665 21.16384,25.07665 z m -60.46814,-49.85893 h 38.68389 M 163.75425,637.4602 v 49.04575 m 41.72233,52.23955 c 11.72479,0 21.16393,-11.1842 21.16393,-25.07665 v -48.37434 c 0,-13.89247 -9.43914,-25.07665 -21.16393,-25.07665 -11.72477,0 -21.16384,11.18418 -21.16384,25.07665 v 48.37434 c 0,13.89245 9.43907,25.07665 21.16384,25.07665 z m -60.46814,-49.85893 h 38.68389 M 163.75425,637.4602 v 49.04575 m 10.933,64.67025 c 0,5.88374 -4.76972,10.65347 -10.65347,10.65347 -5.88376,0 -10.65348,-4.76971 -10.65348,-10.65347 0,-5.88376 4.76972,-10.65347 10.65348,-10.65347 5.88375,0 10.65347,4.76972 10.65347,10.65347 z m 30.78933,111.85146 c 11.72479,0 21.16393,-11.18419 21.16393,-25.07665 v -48.37433 c 0,-13.89247 -9.43914,-25.07665 -21.16393,-25.07665 -11.72477,0 -21.16384,11.18418 -21.16384,25.07665 v 48.37433 c 0,13.89246 9.43907,25.07665 21.16384,25.07665 z m -60.46814,-49.85897 h 38.68389 m -19.93808,-51.42637 v 49.04577 m 41.72233,52.23957 c 11.72479,0 21.16393,-11.18419 21.16393,-25.07665 v -48.37433 c 0,-13.89247 -9.43914,-25.07665 -21.16393,-25.07665 -11.72477,0 -21.16384,11.18418 -21.16384,25.07665 v 48.37433 c 0,13.89246 9.43907,25.07665 21.16384,25.07665 z m -60.46814,-49.85897 h 38.68389 m -19.93808,-51.42637 v 49.04577 m 41.72233,-171.76053 c 11.72479,0 21.16393,11.18418 21.16393,25.07665 v 48.37433 c 0,13.89246 -9.43914,25.07665 -21.16393,25.07665 -11.72477,0 -21.16384,-11.18419 -21.16384,-25.07665 v -48.37433 c 0,-13.89247 9.43907,-25.07665 21.16384,-25.07665 z m -60.46814,49.85899 h 38.68389 m -19.93808,51.42637 v -49.04576 m 41.72233,-52.2396 c 11.72479,0 21.16393,11.18418 21.16393,25.07665 v 48.37433 c 0,13.89246 -9.43914,25.07665 -21.16393,25.07665 -11.72477,0 -21.16384,-11.18419 -21.16384,-25.07665 v -48.37433 c 0,-13.89247 9.43907,-25.07665 21.16384,-25.07665 z m -60.46814,49.85899 h 38.68389 m -19.93808,51.42637 v -49.04576 m -18.74581,-2.38061 h 38.68389 m 637.85093,49.85902 c 11.72479,0 21.1638,-11.18418 21.1638,-25.07665 v -48.37433 c 0,-13.89247 -9.43901,-25.07665 -21.1638,-25.07665 -11.72479,0 -21.16393,11.18418 -21.16393,25.07665 v 48.37433 c 0,13.89247 9.43914,25.07665 21.16393,25.07665 z m 0,124.28213 c 11.72479,0 21.1638,-11.18419 21.1638,-25.07664 v -48.37434 c 0,-13.89247 -9.43901,-25.07665 -21.1638,-25.07665 -11.72479,0 -21.16393,11.18418 -21.16393,25.07665 v 48.37434 c 0,13.89245 9.43914,25.07664 21.16393,25.07664 z m 0,0 c 11.72479,0 21.1638,-11.18419 21.1638,-25.07664 v -48.37434 c 0,-13.89247 -9.43901,-25.07665 -21.1638,-25.07665 -11.72479,0 -21.16393,11.18418 -21.16393,25.07665 v 48.37434 c 0,13.89245 9.43914,25.07664 21.16393,25.07664 z m 0,-224.00014 c 11.72479,0 21.1638,11.18418 21.1638,25.07665 v 48.37433 c 0,13.89246 -9.43901,25.07665 -21.1638,25.07665 -11.72479,0 -21.16393,-11.18419 -21.16393,-25.07665 v -48.37433 c 0,-13.89247 9.43914,-25.07665 21.16393,-25.07665 z m 0,0 c 11.72479,0 21.1638,11.18418 21.1638,25.07665 v 48.37433 c 0,13.89246 -9.43901,25.07665 -21.1638,25.07665 -11.72479,0 -21.16393,-11.18419 -21.16393,-25.07665 v -48.37433 c 0,-13.89247 9.43914,-25.07665 21.16393,-25.07665 z m -697.87652,99.71801 c 11.72477,0 21.16386,-11.18418 21.16386,-25.07665 v -48.37433 c 0,-13.89247 -9.43909,-25.07665 -21.16386,-25.07665 -11.72479,0 -21.16387,11.18418 -21.16387,25.07665 v 48.37433 c 0,13.89247 9.43908,25.07665 21.16387,25.07665 z m 0,0 c 11.72477,0 21.16386,-11.18418 21.16386,-25.07665 v -48.37433 c 0,-13.89247 -9.43909,-25.07665 -21.16386,-25.07665 -11.72479,0 -21.16387,11.18418 -21.16387,25.07665 v 48.37433 c 0,13.89247 9.43908,25.07665 21.16387,25.07665 z m 0,124.28213 c 11.72477,0 21.16386,-11.18419 21.16386,-25.07664 v -48.37434 c 0,-13.89247 -9.43909,-25.07665 -21.16386,-25.07665 -11.72479,0 -21.16387,11.18418 -21.16387,25.07665 v 48.37434 c 0,13.89245 9.43908,25.07664 21.16387,25.07664 z m 0,0 c 11.72477,0 21.16386,-11.18419 21.16386,-25.07664 v -48.37434 c 0,-13.89247 -9.43909,-25.07665 -21.16386,-25.07665 -11.72479,0 -21.16387,11.18418 -21.16387,25.07665 v 48.37434 c 0,13.89245 9.43908,25.07664 21.16387,25.07664 z m 0,-224.00014 c 11.72477,0 21.16386,11.18418 21.16386,25.07665 v 48.37433 c 0,13.89246 -9.43909,25.07665 -21.16386,25.07665 -11.72479,0 -21.16387,-11.18419 -21.16387,-25.07665 v -48.37433 c 0,-13.89247 9.43908,-25.07665 21.16387,-25.07665 z m 0,0 c 11.72477,0 21.16386,11.18418 21.16386,25.07665 v 48.37433 c 0,13.89246 -9.43909,25.07665 -21.16386,25.07665 -11.72479,0 -21.16387,-11.18419 -21.16387,-25.07665 v -48.37433 c 0,-13.89247 9.43908,-25.07665 21.16387,-25.07665 z M 524.65228,102.47202 c 0,5.88374 -4.76974,10.65346 -10.65345,10.65347 -5.88371,-1e-5 -10.65345,-4.76973 -10.65345,-10.65347 0,-5.883733 4.76974,-10.653453 10.65345,-10.653473 5.88371,2e-5 10.65345,4.76974 10.65345,10.653473 z M 473.63174,52.699202 c 11.72478,0 21.16392,11.184194 21.16392,25.076645 v 48.374343 c 0,13.89247 -9.43914,25.07665 -21.16392,25.07665 -11.72479,0 -21.1638,-11.18418 -21.1638,-25.07665 V 77.775847 c 0,-13.892451 9.43901,-25.076645 21.1638,-25.076645 z m 81.80986,3.1e-5 c 11.72478,0 21.16379,11.184184 21.16379,25.076654 v 48.374323 c 0,13.89247 -9.43901,25.07665 -21.16379,25.07665 -11.72479,0 -21.1638,-11.18418 -21.1638,-25.07665 V 77.775887 c 0,-13.89247 9.43901,-25.076654 21.1638,-25.076654 z m -60.46808,49.858977 h 8.14259 m 21.25365,0 h 9.28764"
   inkscape:connector-curvature="0"
   sodipodi:nodetypes="scscsssssssssssssssccccssssssssssssssccccccsssssssssssssssssssccccssssssssssssssccccccssssssssssssssccccsssssssccccscscssssssssccccsssssssccccsssssssccccsssssssccccccsssssssccccsssssssccccssssssssssssccccsssssssccccsssssssccccsssssssccccccsssssssssssssssssssssssssssssssssssssssssssssssssssssssssssssssssssssssssssssscscssssssssssssssscccc"
   inkscape:label="#gearorange" /><text
   xml:space="preserve"
   style="font-style:normal;font-variant:normal;font-weight:normal;font-stretch:normal;font-size:15.7395525px;line-height:0%;font-family:'Liberation Sans';-inkscape-font-specification:'Liberation Sans';text-align:start;letter-spacing:0px;word-spacing:0px;writing-mode:lr-tb;text-anchor:start;display:inline;fill:#ffbf00;fill-opacity:1;stroke:none;stroke-width:1.3116293"
   x="94.839355"
   y="930.08289"
   id="gear1closed"
   inkscape:label="#textorange"><tspan
     sodipodi:role="line"
     id="tspan5449"
     x="94.839355"
     y="930.08289"
     style="font-size:32.79073334px;line-height:1.25;fill:#ffbf00;fill-opacity:1;stroke-width:1.3116293">CLOSED</tspan></text>
<text
   inkscape:label="#textorange"
   id="text1469"
   y="211.75496"
   x="446.96094"
   style="font-style:normal;font-variant:normal;font-weight:normal;font-stretch:normal;font-size:15.7395525px;line-height:0%;font-family:'Liberation Sans';-inkscape-font-specification:'Liberation Sans';text-align:start;letter-spacing:0px;word-spacing:0px;writing-mode:lr-tb;text-anchor:start;display:inline;fill:#ffbf00;fill-opacity:1;stroke:none;stroke-width:1.3116293"
   xml:space="preserve"><tspan
     style="font-size:32.79073334px;line-height:1.25;fill:#ffbf00;fill-opacity:1;stroke-width:1.3116293"
     y="211.75496"
     x="446.96094"
     id="tspan1467"
     sodipodi:role="line">CLOSED</tspan></text>
<text
   id="gear4closed"
   y="930.08289"
   x="791.03326"
   style="font-style:normal;font-variant:normal;font-weight:normal;font-stretch:normal;font-size:15.7395525px;line-height:0%;font-family:'Liberation Sans';-inkscape-font-specification:'Liberation Sans';text-align:start;letter-spacing:0px;word-spacing:0px;writing-mode:lr-tb;text-anchor:start;display:inline;fill:#ffbf00;fill-opacity:1;stroke:none;stroke-width:1.3116293"
   xml:space="preserve"
   inkscape:label="#textorange"><tspan
     style="font-size:32.79073334px;line-height:1.25;fill:#ffbf00;fill-opacity:1;stroke-width:1.3116293"
     y="930.08289"
     x="791.03326"
     id="tspan5453"
     sodipodi:role="line">CLOSED</tspan></text>
<path
   sodipodi:nodetypes="scscsssssssssssssssccccssssssssssssssccccccsssssssssssssssssssccccssssssssssssssccccccssssssssssssssccccsssssssccccscscssssssssccccsssssssccccsssssssccccsssssssccccccsssssssccccsssssssccccssssssssssssccccsssssssccccsssssssccccsssssssccccccsssssssssssssssssssssssssssssssssssssssssssssssssssssssssssssssssssssssssssssscscssssssssssssssscccc"
   inkscape:connector-curvature="0"
   d="m 872.5638,625.70375 c 0,5.88374 -4.76974,10.65346 -10.65344,10.65348 -5.88371,-2e-5 -10.65345,-4.76974 -10.65345,-10.65348 0,-5.88373 4.76974,-10.65346 10.65345,-10.65347 5.8837,10e-6 10.65344,4.76974 10.65344,10.65347 z M 821.54326,513.55513 c 11.72479,0 21.1638,11.18418 21.1638,25.07665 v 48.37432 c 0,13.89247 -9.43901,25.07665 -21.1638,25.07665 -11.72479,0 -21.16393,-11.18418 -21.16393,-25.07665 v -48.37432 c 0,-13.89247 9.43914,-25.07665 21.16393,-25.07665 z m 81.80986,2e-5 c 11.72479,0 21.16392,11.18419 21.16392,25.07665 v 48.37433 c 0,13.89247 -9.43913,25.07665 -21.16392,25.07665 -11.72478,0 -21.1638,-11.18418 -21.1638,-25.07665 V 538.6318 c 0,-13.89246 9.43902,-25.07665 21.1638,-25.07665 z m -60.46822,49.85897 h 38.6839 m -19.93809,51.42637 v -49.04577 m -40.08745,-52.23959 c 11.72479,0 21.1638,11.18418 21.1638,25.07665 v 48.37432 c 0,13.89247 -9.43901,25.07665 -21.1638,25.07665 -11.72479,0 -21.16393,-11.18418 -21.16393,-25.07665 v -48.37432 c 0,-13.89247 9.43914,-25.07665 21.16393,-25.07665 z m 81.80986,2e-5 c 11.72479,0 21.16392,11.18419 21.16392,25.07665 v 48.37433 c 0,13.89247 -9.43913,25.07665 -21.16392,25.07665 -11.72478,0 -21.1638,-11.18418 -21.1638,-25.07665 V 538.6318 c 0,-13.89246 9.43902,-25.07665 21.1638,-25.07665 z m -60.46822,49.85897 h 38.6839 m -19.93809,51.42637 v -49.04577 m -18.74581,-2.3806 h 38.6839 m -706.88155,62.28962 c 0,5.88375 -4.76972,10.65347 -10.65347,10.65347 -5.88374,0 -10.65347,-4.76972 -10.65347,-10.65347 0,-5.88374 4.76973,-10.65347 10.65347,-10.65347 5.88375,0 10.65347,4.76973 10.65347,10.65347 z M 123.66674,513.55513 c 11.72477,0 21.16386,11.18418 21.16386,25.07665 v 48.37432 c 0,13.89247 -9.43909,25.07665 -21.16386,25.07665 -11.72479,0 -21.16387,-11.18418 -21.16387,-25.07665 v -48.37432 c 0,-13.89247 9.43908,-25.07665 21.16387,-25.07665 z m 81.80984,2e-5 c 11.72479,0 21.16393,11.18419 21.16393,25.07665 v 48.37433 c 0,13.89247 -9.43914,25.07665 -21.16393,25.07665 -11.72477,0 -21.16384,-11.18418 -21.16384,-25.07665 V 538.6318 c 0,-13.89246 9.43907,-25.07665 21.16384,-25.07665 z m -60.46814,49.85897 h 38.68389 m -19.93808,51.42637 v -49.04577 m -40.08751,-52.23959 c 11.72477,0 21.16386,11.18418 21.16386,25.07665 v 48.37432 c 0,13.89247 -9.43909,25.07665 -21.16386,25.07665 -11.72479,0 -21.16387,-11.18418 -21.16387,-25.07665 v -48.37432 c 0,-13.89247 9.43908,-25.07665 21.16387,-25.07665 z m 81.80984,2e-5 c 11.72479,0 21.16393,11.18419 21.16393,25.07665 v 48.37433 c 0,13.89247 -9.43914,25.07665 -21.16393,25.07665 -11.72477,0 -21.16384,-11.18418 -21.16384,-25.07665 V 538.6318 c 0,-13.89246 9.43907,-25.07665 21.16384,-25.07665 z m -60.46814,49.85897 h 38.68389 m -19.93808,51.42637 v -49.04577 m -18.74581,-2.3806 h 38.68389 m 637.85093,175.33145 c 11.72479,0 21.1638,-11.18418 21.1638,-25.07665 v -48.37433 c 0,-13.89247 -9.43901,-25.07665 -21.1638,-25.07665 -11.72479,0 -21.16393,11.18418 -21.16393,25.07665 v 48.37433 c 0,13.89247 9.43914,25.07665 21.16393,25.07665 z m 81.80986,-7e-5 c 11.72479,0 21.16392,-11.1842 21.16392,-25.07665 v -48.37434 c 0,-13.89247 -9.43913,-25.07665 -21.16392,-25.07665 -11.72478,0 -21.1638,11.18418 -21.1638,25.07665 v 48.37434 c 0,13.89245 9.43902,25.07665 21.1638,25.07665 z M 842.8849,688.88657 h 38.6839 M 861.63071,637.4602 v 49.04575 m 41.72241,52.23955 c 11.72479,0 21.16392,-11.1842 21.16392,-25.07665 v -48.37434 c 0,-13.89247 -9.43913,-25.07665 -21.16392,-25.07665 -11.72478,0 -21.1638,11.18418 -21.1638,25.07665 v 48.37434 c 0,13.89245 9.43902,25.07665 21.1638,25.07665 z M 842.8849,688.88657 h 38.6839 M 861.63071,637.4602 v 49.04575 m 10.93309,64.67025 c 0,5.88373 -4.76974,10.65346 -10.65344,10.65347 -5.88371,-10e-6 -10.65345,-4.76974 -10.65345,-10.65347 0,-5.88373 4.76974,-10.65346 10.65345,-10.65347 5.8837,10e-6 10.65344,4.76974 10.65344,10.65347 z m 30.78932,111.85146 c 11.72479,0 21.16392,-11.18419 21.16392,-25.07665 v -48.37433 c 0,-13.89247 -9.43913,-25.07665 -21.16392,-25.07665 -11.72478,0 -21.1638,11.18418 -21.1638,25.07665 v 48.37433 c 0,13.89246 9.43902,25.07665 21.1638,25.07665 z M 842.8849,813.16869 h 38.6839 m -19.93809,-51.42637 v 49.04577 m 41.72241,52.23957 c 11.72479,0 21.16392,-11.18419 21.16392,-25.07665 v -48.37433 c 0,-13.89247 -9.43913,-25.07665 -21.16392,-25.07665 -11.72478,0 -21.1638,11.18418 -21.1638,25.07665 v 48.37433 c 0,13.89246 9.43902,25.07665 21.1638,25.07665 z M 842.8849,813.16869 h 38.6839 m -19.93809,-51.42637 v 49.04577 m 41.72241,-171.76053 c 11.72479,0 21.16392,11.18418 21.16392,25.07665 v 48.37433 c 0,13.89246 -9.43913,25.07665 -21.16392,25.07665 -11.72478,0 -21.1638,-11.18419 -21.1638,-25.07665 v -48.37433 c 0,-13.89247 9.43902,-25.07665 21.1638,-25.07665 z m -60.46822,49.85899 h 38.6839 m -19.93809,51.42637 v -49.04576 m 41.72241,-52.2396 c 11.72479,0 21.16392,11.18418 21.16392,25.07665 v 48.37433 c 0,13.89246 -9.43913,25.07665 -21.16392,25.07665 -11.72478,0 -21.1638,-11.18419 -21.1638,-25.07665 v -48.37433 c 0,-13.89247 9.43902,-25.07665 21.1638,-25.07665 z m -60.46822,49.85899 h 38.6839 m -19.93809,51.42637 v -49.04576 m -18.74581,-2.38061 h 38.6839 M 205.47658,738.7455 c 11.72479,0 21.16393,-11.1842 21.16393,-25.07665 v -48.37434 c 0,-13.89247 -9.43914,-25.07665 -21.16393,-25.07665 -11.72477,0 -21.16384,11.18418 -21.16384,25.07665 v 48.37434 c 0,13.89245 9.43907,25.07665 21.16384,25.07665 z m -60.46814,-49.85893 h 38.68389 M 163.75425,637.4602 v 49.04575 m 41.72233,52.23955 c 11.72479,0 21.16393,-11.1842 21.16393,-25.07665 v -48.37434 c 0,-13.89247 -9.43914,-25.07665 -21.16393,-25.07665 -11.72477,0 -21.16384,11.18418 -21.16384,25.07665 v 48.37434 c 0,13.89245 9.43907,25.07665 21.16384,25.07665 z m -60.46814,-49.85893 h 38.68389 M 163.75425,637.4602 v 49.04575 m 10.933,64.67025 c 0,5.88374 -4.76972,10.65347 -10.65347,10.65347 -5.88376,0 -10.65348,-4.76971 -10.65348,-10.65347 0,-5.88376 4.76972,-10.65347 10.65348,-10.65347 5.88375,0 10.65347,4.76972 10.65347,10.65347 z m 30.78933,111.85146 c 11.72479,0 21.16393,-11.18419 21.16393,-25.07665 v -48.37433 c 0,-13.89247 -9.43914,-25.07665 -21.16393,-25.07665 -11.72477,0 -21.16384,11.18418 -21.16384,25.07665 v 48.37433 c 0,13.89246 9.43907,25.07665 21.16384,25.07665 z m -60.46814,-49.85897 h 38.68389 m -19.93808,-51.42637 v 49.04577 m 41.72233,52.23957 c 11.72479,0 21.16393,-11.18419 21.16393,-25.07665 v -48.37433 c 0,-13.89247 -9.43914,-25.07665 -21.16393,-25.07665 -11.72477,0 -21.16384,11.18418 -21.16384,25.07665 v 48.37433 c 0,13.89246 9.43907,25.07665 21.16384,25.07665 z m -60.46814,-49.85897 h 38.68389 m -19.93808,-51.42637 v 49.04577 m 41.72233,-171.76053 c 11.72479,0 21.16393,11.18418 21.16393,25.07665 v 48.37433 c 0,13.89246 -9.43914,25.07665 -21.16393,25.07665 -11.72477,0 -21.16384,-11.18419 -21.16384,-25.07665 v -48.37433 c 0,-13.89247 9.43907,-25.07665 21.16384,-25.07665 z m -60.46814,49.85899 h 38.68389 m -19.93808,51.42637 v -49.04576 m 41.72233,-52.2396 c 11.72479,0 21.16393,11.18418 21.16393,25.07665 v 48.37433 c 0,13.89246 -9.43914,25.07665 -21.16393,25.07665 -11.72477,0 -21.16384,-11.18419 -21.16384,-25.07665 v -48.37433 c 0,-13.89247 9.43907,-25.07665 21.16384,-25.07665 z m -60.46814,49.85899 h 38.68389 m -19.93808,51.42637 v -49.04576 m -18.74581,-2.38061 h 38.68389 m 637.85093,49.85902 c 11.72479,0 21.1638,-11.18418 21.1638,-25.07665 v -48.37433 c 0,-13.89247 -9.43901,-25.07665 -21.1638,-25.07665 -11.72479,0 -21.16393,11.18418 -21.16393,25.07665 v 48.37433 c 0,13.89247 9.43914,25.07665 21.16393,25.07665 z m 0,124.28213 c 11.72479,0 21.1638,-11.18419 21.1638,-25.07664 v -48.37434 c 0,-13.89247 -9.43901,-25.07665 -21.1638,-25.07665 -11.72479,0 -21.16393,11.18418 -21.16393,25.07665 v 48.37434 c 0,13.89245 9.43914,25.07664 21.16393,25.07664 z m 0,0 c 11.72479,0 21.1638,-11.18419 21.1638,-25.07664 v -48.37434 c 0,-13.89247 -9.43901,-25.07665 -21.1638,-25.07665 -11.72479,0 -21.16393,11.18418 -21.16393,25.07665 v 48.37434 c 0,13.89245 9.43914,25.07664 21.16393,25.07664 z m 0,-224.00014 c 11.72479,0 21.1638,11.18418 21.1638,25.07665 v 48.37433 c 0,13.89246 -9.43901,25.07665 -21.1638,25.07665 -11.72479,0 -21.16393,-11.18419 -21.16393,-25.07665 v -48.37433 c 0,-13.89247 9.43914,-25.07665 21.16393,-25.07665 z m 0,0 c 11.72479,0 21.1638,11.18418 21.1638,25.07665 v 48.37433 c 0,13.89246 -9.43901,25.07665 -21.1638,25.07665 -11.72479,0 -21.16393,-11.18419 -21.16393,-25.07665 v -48.37433 c 0,-13.89247 9.43914,-25.07665 21.16393,-25.07665 z m -697.87652,99.71801 c 11.72477,0 21.16386,-11.18418 21.16386,-25.07665 v -48.37433 c 0,-13.89247 -9.43909,-25.07665 -21.16386,-25.07665 -11.72479,0 -21.16387,11.18418 -21.16387,25.07665 v 48.37433 c 0,13.89247 9.43908,25.07665 21.16387,25.07665 z m 0,0 c 11.72477,0 21.16386,-11.18418 21.16386,-25.07665 v -48.37433 c 0,-13.89247 -9.43909,-25.07665 -21.16386,-25.07665 -11.72479,0 -21.16387,11.18418 -21.16387,25.07665 v 48.37433 c 0,13.89247 9.43908,25.07665 21.16387,25.07665 z m 0,124.28213 c 11.72477,0 21.16386,-11.18419 21.16386,-25.07664 v -48.37434 c 0,-13.89247 -9.43909,-25.07665 -21.16386,-25.07665 -11.72479,0 -21.16387,11.18418 -21.16387,25.07665 v 48.37434 c 0,13.89245 9.43908,25.07664 21.16387,25.07664 z m 0,0 c 11.72477,0 21.16386,-11.18419 21.16386,-25.07664 v -48.37434 c 0,-13.89247 -9.43909,-25.07665 -21.16386,-25.07665 -11.72479,0 -21.16387,11.18418 -21.16387,25.07665 v 48.37434 c 0,13.89245 9.43908,25.07664 21.16387,25.07664 z m 0,-224.00014 c 11.72477,0 21.16386,11.18418 21.16386,25.07665 v 48.37433 c 0,13.89246 -9.43909,25.07665 -21.16386,25.07665 -11.72479,0 -21.16387,-11.18419 -21.16387,-25.07665 v -48.37433 c 0,-13.89247 9.43908,-25.07665 21.16387,-25.07665 z m 0,0 c 11.72477,0 21.16386,11.18418 21.16386,25.07665 v 48.37433 c 0,13.89246 -9.43909,25.07665 -21.16386,25.07665 -11.72479,0 -21.16387,-11.18419 -21.16387,-25.07665 v -48.37433 c 0,-13.89247 9.43908,-25.07665 21.16387,-25.07665 z M 524.65228,102.47202 c 0,5.88374 -4.76974,10.65346 -10.65345,10.65347 -5.88371,-1e-5 -10.65345,-4.76973 -10.65345,-10.65347 0,-5.883733 4.76974,-10.653453 10.65345,-10.653473 5.88371,2e-5 10.65345,4.76974 10.65345,10.653473 z M 473.63174,52.699202 c 11.72478,0 21.16392,11.184194 21.16392,25.076645 v 48.374343 c 0,13.89247 -9.43914,25.07665 -21.16392,25.07665 -11.72479,0 -21.1638,-11.18418 -21.1638,-25.07665 V 77.775847 c 0,-13.892451 9.43901,-25.076645 21.1638,-25.076645 z m 81.80986,3.1e-5 c 11.72478,0 21.16379,11.184184 21.16379,25.076654 v 48.374323 c 0,13.89247 -9.43901,25.07665 -21.16379,25.07665 -11.72479,0 -21.1638,-11.18418 -21.1638,-25.07665 V 77.775887 c 0,-13.89247 9.43901,-25.076654 21.1638,-25.076654 z m -60.46808,49.858977 h 8.14259 m 21.25365,0 h 9.28764"
   style="display:inline;fill:none;stroke:#00ff00;stroke-width:5.24651718;stroke-linecap:butt;stroke-linejoin:miter;stroke-miterlimit:4;stroke-dasharray:none;stroke-dashoffset:0;stroke-opacity:1"
   id="gear"
   inkscape:label="#gearvert" /><path
   d="m 786.59525,897.67649 v 40.87118 c 0,0 118.5734,-0.0147 146.68666,0 v -40.87118"
   id="rect3"
   style="display:inline;fill:#000000;fill-opacity:1;fill-rule:evenodd;stroke:none;stroke-width:0.07561427"
   inkscape:label="#rect3"
   inkscape:connector-curvature="0" /><text
   inkscape:label="#open3"
   xml:space="preserve"
   style="font-style:normal;font-variant:normal;font-weight:normal;font-stretch:normal;font-size:15.7395525px;line-height:0%;font-family:'Liberation Sans';-inkscape-font-specification:'Liberation Sans';text-align:start;letter-spacing:0px;word-spacing:0px;writing-mode:lr-tb;text-anchor:start;display:inline;fill:#00ff00;fill-opacity:1;stroke:none;stroke-width:1.3116293"
   x="813.08649"
   y="930.08289"
   id="open3"><tspan
     sodipodi:role="line"
     id="tspan1447"
     x="813.08649"
     y="930.08289"
     style="font-size:32.79073334px;line-height:1.25;fill:#00ff00;fill-opacity:1;stroke-width:1.3116293">OPEN</tspan></text>
<path
   inkscape:connector-curvature="0"
   inkscape:label="#rect2"
   style="display:inline;fill:#000000;fill-opacity:1;fill-rule:evenodd;stroke:none;stroke-width:0.07561427"
   id="rect2"
   d="m 88.431478,898.43844 v 40.87118 c 0,0 118.573412,-0.0147 146.686652,0 v -40.87118" /><text
   inkscape:label="#open2"
   id="open2"
   y="930.08289"
   x="114.04699"
   style="font-style:normal;font-variant:normal;font-weight:normal;font-stretch:normal;font-size:15.7395525px;line-height:0%;font-family:'Liberation Sans';-inkscape-font-specification:'Liberation Sans';text-align:start;letter-spacing:0px;word-spacing:0px;writing-mode:lr-tb;text-anchor:start;display:inline;fill:#00ff00;fill-opacity:1;stroke:none;stroke-width:1.3116293"
   xml:space="preserve"><tspan
     style="font-size:32.79073334px;line-height:1.25;fill:#00ff00;fill-opacity:1;stroke-width:1.3116293"
     y="930.08289"
     x="114.04699"
     id="tspan1451"
     sodipodi:role="line">OPEN</tspan></text>
<path
   inkscape:connector-curvature="0"
   inkscape:label="#rect1"
   style="display:inline;fill:#000000;fill-opacity:1;fill-rule:evenodd;stroke:none;stroke-width:0.07561427"
   id="rect1"
   d="m 440.76903,181.41118 v 40.87118 c 0,0 118.57341,-0.0147 146.68666,0 v -40.87118" /><text
   xml:space="preserve"
   style="font-style:normal;font-variant:normal;font-weight:normal;font-stretch:normal;font-size:15.7395525px;line-height:0%;font-family:'Liberation Sans';-inkscape-font-specification:'Liberation Sans';text-align:start;letter-spacing:0px;word-spacing:0px;writing-mode:lr-tb;text-anchor:start;display:inline;fill:#00ff00;fill-opacity:1;stroke:none;stroke-width:1.3116293"
   x="467.59134"
   y="211.39931"
   id="open1"
   inkscape:label="#open1"><tspan
     sodipodi:role="line"
     id="tspan1463"
     x="467.59134"
     y="211.39931"
     style="font-size:32.79073334px;line-height:1.25;fill:#00ff00;fill-opacity:1;stroke-width:1.3116293">OPEN</tspan></text>
</g></svg>