<?xml version="1.0" encoding="UTF-8" standalone="no"?>
<!-- Created with Inkscape (http://www.inkscape.org/) -->

<svg
   version="1.1"
   width="1024"
   height="1024"
   id="svg5180"
   xml:space="preserve"
   inkscape:version="1.4 (1:1.4+202410161351+e7c3feb100)"
   sodipodi:docname="cam.svg"
   xmlns:inkscape="http://www.inkscape.org/namespaces/inkscape"
   xmlns:sodipodi="http://sodipodi.sourceforge.net/DTD/sodipodi-0.dtd"
   xmlns="http://www.w3.org/2000/svg"
   xmlns:svg="http://www.w3.org/2000/svg"
   xmlns:rdf="http://www.w3.org/1999/02/22-rdf-syntax-ns#"
   xmlns:cc="http://creativecommons.org/ns#"
   xmlns:dc="http://purl.org/dc/elements/1.1/"><sodipodi:namedview
   pagecolor="#000000"
   bordercolor="#666666"
   borderopacity="1"
   objecttolerance="10"
   gridtolerance="10"
   guidetolerance="10"
   inkscape:pageopacity="1"
   inkscape:pageshadow="2"
   inkscape:window-width="1920"
   inkscape:window-height="946"
   id="namedview102"
   showgrid="false"
   inkscape:zoom="0.32593168"
   inkscape:cx="362.03906"
   inkscape:cy="529.25202"
   inkscape:window-x="0"
   inkscape:window-y="27"
   inkscape:window-maximized="1"
   inkscape:current-layer="g2"
   inkscape:object-nodes="true"
   inkscape:snap-smooth-nodes="true"
   inkscape:showpageshadow="2"
   inkscape:pagecheckerboard="0"
   inkscape:deskcolor="#d1d1d1" /><metadata
   id="metadata5186"><rdf:RDF><cc:Work
       rdf:about=""><dc:format>image/svg+xml</dc:format><dc:type
         rdf:resource="http://purl.org/dc/dcmitype/StillImage" /><dc:creator><cc:Agent><dc:title>franck.VMD</dc:title></cc:Agent></dc:creator></cc:Work></rdf:RDF></metadata><defs
   id="defs5184">














































































































</defs>














































































































































































































<g
   inkscape:groupmode="layer"
   id="layer1"
   inkscape:label="Layer"
   style="display:inline">















































































































<g
   id="g2"
   style="display:inline"
   transform="matrix(0.33567912,0,0,0.33567912,83.109395,525.7155)"><rect
     style="display:inline;fill:#000000;stroke-width:9.615"
     id="rect1"
     width="1024.7546"
     height="1023.2206"
     x="0"
     y="0"
     transform="matrix(2.9790355,0,0,2.9790355,-247.58583,-1566.1251)" /><path
     style="display:inline;fill:#b8d0e7"
     d="m 0,-8.123581 c 905.71534,0 1860.4674,5.57731 2556.2092,6.662337 0,343.641704 5.1518,660.877154 5.1518,852.247984 C 930.29314,827.13778 0,830.53425 0,830.53425 Z"
     id="path13"
     sodipodi:nodetypes="ccccc"
     inkscape:label="bleu" /><path
     style="display:inline;fill:#455b2c"
     d="M 0,1102.6865 V 709.33333 h 2560 v 400.98657 c -863.4013,0 -1705.8104,7.3868 -2560,-7.6334 z"
     id="path6-3"
     sodipodi:nodetypes="ccccc"
     inkscape:label="vert" /><path
     style="display:inline;fill:#2d4545"
     d="M 205.33333,690.6635 C 188.6847,610.02819 167.92233,530.21144 152,449.42484 c 47.09719,38.18876 107.18148,36.19377 157.74631,48.64426 1.40644,51.99385 6.12197,77.33456 9.691,219.55277 0.0188,0.75201 -96.13771,12.78885 -114.10398,15.8323 z m 2025.84297,22.27512 c 5.7975,-96.38868 -10.6278,-104.3846 34.8677,-204.65362 17.3932,-38.33361 141.956,-60.62343 141.956,-58.86016 -17.4539,80.48283 -35.4678,160.84569 -53.3333,241.23866 -0.7385,7.15409 1.9789,39.19714 -1.6667,42.53409 -22.2466,-1.81283 -121.9201,-18.65698 -121.8237,-20.25897 z"
     id="path5-6"
     sodipodi:nodetypes="csssccssscss" /><path
     style="display:inline;fill:#5c5c45"
     d="m 300,770.01383 c 0,-2.86961 -24.55764,-275.89491 -25.28043,-281.04987 8.89567,-20.17917 76.64683,-26.11528 81.37432,19.09029 4.85427,46.41747 20.01087,257.61577 19.64258,257.95238 C 363.99142,776.74145 300,778.935 300,770.01383 Z m 1884.2635,-3.98609 c -0.3682,-0.35582 16.3501,-226.1311 21.2103,-272.60553 2.5405,-6.71187 33.4079,-1.37155 79.8917,-2.25941 C 2280.9726,549.21105 2260,764.16169 2260,770.01383 c -13.8076,5.3346 -57.4966,-1.22873 -75.7365,-3.98609 z"
     id="path8-7"
     sodipodi:nodetypes="ssssssscss" /><path
     style="display:inline;fill:#2d2d2d"
     d="M 0,773.33333 H 2560 V 1440 c -1217.9873,0 -1465.3659,0 -2560,0 z M 284,650.66667 v -20 h 26 26 v 20 20 H 310 284 Z M 362.66667,650 v -20.66667 h -7.50375 -7.50374 l 0.88866,-5.55739 c 0.92405,-5.77869 2.10629,-7.1055 10.03469,-11.26175 2.61294,-1.36976 23.68451,-13.37072 46.82572,-26.66879 l 42.07491,-24.17831 18.25048,4.83312 c 10.03776,2.65822 18.23956,5.13312 18.22621,5.49979 -0.0133,0.36667 -23.96824,12.81667 -53.2331,27.66667 -39.6692,20.12952 -54.41981,27 -57.96779,27 H 368 v 22 c 0,21.11111 -0.10774,22 -2.66667,22 -2.55197,0 -2.66666,-0.88889 -2.66666,-20.66667 z M 2192,648.66667 v -22 h -4.759 c -3.5479,0 -18.2986,-6.87048 -57.9677,-27 -29.2649,-14.85 -53.2198,-27.3 -53.2332,-27.66667 -0.013,-0.36667 8.1885,-2.84157 18.2263,-5.49979 l 18.2504,-4.83312 42.075,24.17831 c 23.1412,13.29807 44.2127,25.29903 46.8257,26.66879 7.9284,4.15625 9.1106,5.48306 10.0347,11.26175 l 0.8886,5.55739 h -7.5037 -7.5038 V 650 c 0,19.77778 -0.1147,20.66667 -2.6666,20.66667 -2.559,0 -2.6667,-0.88889 -2.6667,-22 z m 32,2 v -20 h 26 26 v 20 20 h -26 -26 z"
     id="path4-5"
     sodipodi:nodetypes="ccccccccccccccscccssscsssscsssscsssscssscccsssccccccccc"
     inkscape:label="gris" /><path
     style="display:inline;fill:#fdfdfd"
     d="m 937.81889,1437.9912 c 88.89661,-174.3473 178.22781,-348.4736 267.44381,-522.65787 h 149.4746 c 88.2401,174.67417 179.7759,347.69417 267.4438,522.65787 1.1731,3.057 -685.53553,3.0576 -684.36221,0 z m 240.65231,-641.32453 15.7644,-0.37067 c 0,0 57.7863,12.94234 86.0257,19.29458 28.5104,-5.22375 85.4958,-19.29458 85.4958,-19.29458 l 15.7571,0.37067 c -33.6196,8.47456 -67.2251,17.00504 -100.8475,25.46863 -34.2407,-7.69981 -68.1897,-16.76988 -102.1955,-25.46863 z"
     id="path14"
     sodipodi:nodetypes="sccsscccccsc"
     inkscape:label="blanc" /><path
     style="display:inline;fill:#161616"
     d="M 43.152765,1027.2334 C 6.6234661,988.5011 -1.6550073,900.51454 25.849985,843.33333 c 3.174696,-6.6 8.617738,-15.76289 12.095648,-20.36198 6.576012,-8.69593 19.429853,-18.81032 27.253331,-21.44502 2.837924,-0.95572 14.800946,-1.51237 32,-1.48899 27.365986,0.0372 27.499516,0.0516 36.057796,3.88412 l 8.5901,3.84678 4.98987,-4.27115 c 2.74443,-2.34913 7.87889,-5.74698 11.40991,-7.55078 5.97049,-3.05 8.04816,-3.30921 29.67195,-3.70187 19.96188,-0.36249 23.99018,-0.0893 28.46943,1.93053 4.90171,2.21036 5.43118,2.21716 8.74807,0.11223 13.29079,-8.43444 15.44327,-8.92698 39.07295,-8.94084 21.92416,-0.0129 22.32609,0.0394 31.33334,4.07568 8.66263,3.88183 15.12429,8.47453 15.12429,10.74977 0,0.57217 -1.50575,-0.46543 -3.3461,-2.30578 -18.06233,-18.06233 -37.21616,1.28469 -48.41929,48.90766 -1.42152,6.04267 -0.84618,11.86276 1.31525,13.3051 0.61441,0.40999 -1.82989,1.68786 -5.43178,2.8397 l -6.5489,2.09426 -1.52117,-6.04112 c -6.70079,-26.61123 -26.0027,-27.12866 -34.33088,-0.92031 -1.62224,5.10511 -3.35966,11.89916 -3.86093,15.09789 -0.7775,4.96134 -1.56225,6.08781 -5.34098,7.66666 -7.22415,3.01844 -7.42536,2.77599 -6.48659,-7.81587 2.27967,-25.72092 12.43474,-50.1836 23.67836,-57.03914 12.69932,-7.74311 24.87182,1.07358 33.18891,24.03914 1.99185,5.5 3.65512,9.27447 3.69616,8.38772 0.041,-0.88676 -1.93625,-7.2384 -4.39396,-14.11477 -12.01396,-33.61361 -31.1698,-44.53546 -47.34095,-26.99183 -12.95065,14.04979 -21.38443,40.20838 -23.66022,73.38555 -0.66052,9.62932 -1.33665,13.52181 -1.96859,11.33333 -0.91634,-3.17339 -0.96891,-3.18938 -1.09544,-0.33333 -0.11679,2.63638 -0.84391,3 -5.99906,3 h -5.86616 l -2.21237,-9.9442 c -2.62271,-11.78856 -8.88279,-24.93995 -13.66024,-28.6979 -4.49345,-3.53454 -12.31212,-3.52241 -16.82333,0.0261 -1.9,1.49454 -5.30241,6.47089 -7.56091,11.05856 -12.59651,25.58715 -12.59651,78.86104 0,104.44819 4.96138,10.07799 9.25341,13.7759 15.98917,13.7759 6.66147,0 10.93733,-3.62327 15.82968,-13.41371 3.44369,-6.89144 4.94501,-12.19772 8.9368,-31.58629 0.56113,-2.72544 1.37797,-2.99907 8.92559,-2.9899 l 8.30793,0.0101 3.03769,10.9899 c 5.91967,21.41644 16.57491,38.89707 26.29564,43.13971 3.49131,1.52379 0.92519,1.75245 -20.17811,1.798 l -24.1781,0.0522 3.1781,-10.93152 c 1.74796,-6.01233 3.13549,-11.86233 3.08341,-13 -0.0521,-1.13766 -1.28839,2.12181 -2.74734,7.24326 -12.69334,44.55833 -38.86502,52.91213 -55.62971,17.75657 C 108.54203,975.5575 104.01572,950.63509 104.01572,920 c 0,-55.02347 16.21317,-96 37.98428,-96 13.23878,0 24.35889,14.70393 31.89356,42.17231 1.78441,6.50523 3.28834,10.84338 3.34208,9.64032 0.24408,-5.46496 -7.24462,-29.6351 -12.62473,-40.74688 -18.02132,-37.22024 -43.28814,-37.22024 -61.17873,0 -11.405567,23.72855 -15.874303,47.45051 -15.874303,84.26758 0,36.81707 4.468736,60.53903 15.874303,84.26757 6.55742,13.6423 16.36249,24.8242 23.60206,26.9163 2.90016,0.838 -9.31657,1.2814 -37.543471,1.3625 L 47.648206,1032 Z M 176.91082,963.75 c -0.42564,-1.06364 -0.74158,-0.7477 -0.80556,0.80556 -0.0579,1.40555 0.25724,2.19305 0.7003,1.75 0.44305,-0.44306 0.49042,-1.59306 0.10526,-2.55556 z m 1.33333,-8 c -0.42563,-1.06364 -0.74157,-0.7477 -0.80555,0.80556 -0.0579,1.40555 0.25723,2.19305 0.70029,1.75 0.44305,-0.44306 0.49042,-1.59306 0.10526,-2.55556 z M 179.54971,945 c -0.36989,-0.91667 -0.67252,-0.16667 -0.67252,1.66667 0,1.83333 0.30263,2.58333 0.67252,1.66666 0.36988,-0.91666 0.36988,-2.41666 0,-3.33333 z m -1.33334,-64 c -0.36988,-0.91667 -0.67251,-0.16667 -0.67251,1.66667 0,1.83333 0.30263,2.58333 0.67251,1.66666 0.36989,-0.91666 0.36989,-2.41666 0,-3.33333 z m 128.22608,149.6209 c -7.11572,-4.1525 -22.207,-29.9583 -27.89319,-47.69678 l -3.12303,-9.74255 -14.71311,0.40922 L 246,974 l 2.9583,-6 c 4.5481,-9.22441 3.57142,-9.53387 -2.10405,-0.66667 C 241.14921,976.24673 235.85627,980 228.99145,980 c -8.85954,0 -19.36862,-10.72647 -24.0928,-24.5912 l -2.07012,-6.07547 h 8.33089 c 5.26094,0 9.28465,0.72138 10.91907,1.9576 3.39244,2.56591 11.23924,2.57164 14.89523,0.0109 2.27558,-1.59388 6.2176,-1.95292 18.29874,-1.66667 8.46908,0.20067 15.55929,-0.12082 15.75603,-0.71442 0.19673,-0.5936 -0.0768,-6.8936 -0.60776,-14 -1.79278,-23.99276 2.89257,-60.06189 10.29373,-79.24386 0.83617,-2.16717 0.5236,-2.19162 -4.65576,-0.36424 -5.15359,1.8183 -5.50551,1.79364 -4.90281,-0.34352 0.35712,-1.26634 1.06312,-5.00243 1.56888,-8.30243 2.4425,-15.93675 12.97244,-36.71788 20.60521,-40.66494 6.10604,-3.15755 14.65385,-2.02128 17.49428,2.32554 0.4636,0.70947 3.08891,-0.15536 6,-1.97653 9.25995,-5.79299 12.89786,-6.35261 41.04137,-6.3134 26.63093,0.0371 26.85556,0.0618 35.39113,3.88412 l 8.5901,3.84678 4.98987,-4.27115 c 2.74443,-2.34913 7.87889,-5.74698 11.40991,-7.55078 5.97049,-3.05 8.04816,-3.30921 29.67195,-3.70187 19.96188,-0.36249 23.99018,-0.0893 28.46943,1.93053 4.90171,2.21036 5.43118,2.21716 8.74807,0.11223 13.29584,-8.43765 15.43706,-8.92698 39.12338,-8.94084 l 22.25946,-0.013 9.74054,4.49026 c 9.70004,4.4716 14.54777,8.56746 19.14586,16.17641 2.93865,4.86291 1.1946,3.2351 -4.53034,-4.22839 -2.3464,-3.05895 -6.94457,-6.85832 -10.21816,-8.44304 -5.23976,-2.53652 -6.55258,-2.68898 -10.97108,-1.27404 -2.76049,0.88399 -6.45448,2.88336 -8.20886,4.44303 -6.24141,5.54873 -13.1958,18.17152 -17.16046,31.14766 -6.68584,21.88245 -6.97718,23.9789 -4.6817,33.68811 1.49403,6.31932 2.11146,17.15324 2.27964,40 l 0.23064,31.33334 4.12442,9.6501 c 6.18994,14.48285 10.65489,21.37022 16.68644,25.73945 10.79434,7.81938 21.25871,3.62263 33.41598,-13.40152 l 2.37184,-3.32137 -1.57969,3.33334 c -2.52681,5.33182 -7.88657,11.8578 -12.3588,15.04791 -3.86161,2.75456 -5.96748,2.9967 -31.47187,3.61875 L 506,974 l 2.9583,-6 c 4.5481,-9.22441 3.57142,-9.53387 -2.10405,-0.66667 -2.81623,4.4 -6.95311,9.05 -9.19306,10.33334 -12.19175,6.98501 -24.94057,-1.83732 -32.87445,-22.7495 -7.47855,-19.71203 -8.06048,-23.91748 -8.06048,-58.2505 0,-34.33303 0.58193,-38.53848 8.06048,-58.25051 7.82903,-20.63581 20.24849,-29.44242 32.54994,-23.08109 5.33812,2.76044 11.91215,12.75362 16.22589,24.66493 1.99185,5.5 3.65512,9.27447 3.69616,8.38772 0.041,-0.88676 -1.93625,-7.2384 -4.39396,-14.11477 -12.01396,-33.61361 -31.1698,-44.53546 -47.34095,-26.99183 -9.21242,9.99429 -17.02966,28.49729 -20.82462,49.29079 -2.35648,12.91171 -4.79433,48.70503 -4.45469,65.40533 l 0.2445,12.02276 0.84432,-10.66667 c 0.592,-7.479 0.91739,-8.818 1.08883,-4.48062 0.59514,15.057 6.87874,38.61618 14.09909,52.86183 4.39732,8.67584 12.14808,17.44202 17.47875,19.7686 3.49131,1.52379 0.92519,1.75245 -20.17811,1.798 l -24.1781,0.0522 3.1781,-10.93152 c 1.74796,-6.01233 3.13549,-11.86233 3.08341,-13 -0.0521,-1.13766 -1.28839,2.12181 -2.74734,7.24326 -12.69334,44.55832 -38.86502,52.91212 -55.62971,17.75657 C 368.54203,975.5575 364.01572,950.63509 364.01572,920 c 0,-55.02347 16.21317,-96 37.98428,-96 13.23878,0 24.35889,14.70393 31.89356,42.17231 1.78441,6.50523 3.28834,10.84338 3.34208,9.64032 0.24408,-5.46496 -7.24462,-29.6351 -12.62473,-40.74688 -18.02132,-37.22024 -43.28814,-37.22024 -61.17873,0 -11.40557,23.72855 -15.8743,47.45051 -15.8743,84.26758 0,36.81707 4.46873,60.53903 15.8743,84.26757 6.55742,13.6423 16.36249,24.8242 23.60206,26.9163 2.89659,0.837 -9.18514,1.2683 -37.03424,1.322 -24.54841,0.047 -42.23656,-0.4474 -43.55755,-1.2183 z m 104.65247,-48.00491 c 1.9,-1.49454 5.30241,-6.47089 7.56091,-11.05856 12.59652,-25.58715 12.59652,-78.86104 0,-104.44819 -4.96138,-10.07799 -9.2534,-13.77591 -15.98916,-13.77591 -6.73576,0 -11.02779,3.69792 -15.98917,13.77591 -12.59651,25.58715 -12.59651,78.86104 0,104.44819 4.96138,10.07799 9.25341,13.7759 15.98917,13.7759 2.9857,0 6.3545,-1.08613 8.42825,-2.71734 z M 436.91082,963.75 c -0.42564,-1.06364 -0.74158,-0.7477 -0.80556,0.80556 -0.0579,1.40555 0.25724,2.19305 0.7003,1.75 0.44305,-0.44306 0.49042,-1.59306 0.10526,-2.55556 z m 1.33333,-8 c -0.42563,-1.06364 -0.74157,-0.7477 -0.80555,0.80556 -0.0579,1.40555 0.25723,2.19305 0.70029,1.75 0.44305,-0.44306 0.49042,-1.59306 0.10526,-2.55556 z m 59.95374,-6.08333 c 4.61183,-4.96787 6.29102,-8.50073 9.9814,-21 2.75197,-9.32088 3.14931,-13.44235 3.14931,-32.66667 0,-19.22432 -0.39734,-23.34579 -3.14931,-32.66667 -5.29905,-17.94781 -10.35659,-24.66666 -18.56756,-24.66666 -14.03207,0 -24.13411,28.62097 -22.56169,63.92155 1.0337,23.20658 6.19032,40.25253 14.52625,48.01863 4.43703,4.13372 12.32555,3.68752 16.6216,-0.94018 z M 439.54971,945 c -0.36989,-0.91667 -0.67252,-0.16667 -0.67252,1.66667 0,1.83333 0.30263,2.58333 0.67252,1.66666 0.36988,-0.91666 0.36988,-2.41666 0,-3.33333 z m 0.0409,-53.97462 c -0.33805,-1.29729 -0.63688,-0.55871 -0.66405,1.64129 -0.0272,2.2 0.24942,3.26142 0.61465,2.35871 0.36523,-0.90271 0.38746,-2.70271 0.0494,-4 z M 438.21637,881 c -0.36988,-0.91667 -0.67251,-0.16667 -0.67251,1.66667 0,1.83333 0.30263,2.58333 0.67251,1.66666 0.36989,-0.91666 0.36989,-2.41666 0,-3.33333 z m 1734.74943,149.5172 c 7.2395,-2.0921 17.0446,-13.274 23.602,-26.9163 11.4056,-23.72854 15.8743,-47.4505 15.8743,-84.26757 0,-36.81707 -4.4687,-60.53903 -15.8743,-84.26758 -17.8906,-37.22024 -43.1574,-37.22024 -61.1787,0 -5.3801,11.11178 -12.8688,35.28192 -12.6247,40.74688 0.054,1.20306 1.5576,-3.13509 3.342,-9.64032 C 2133.6411,838.70393 2144.7612,824 2158,824 c 21.7711,0 37.9843,40.97653 37.9843,96 0,55.02347 -16.2132,96 -37.9843,96 -2.6395,0 -6.4802,-0.8694 -8.535,-1.9319 -8.5377,-4.415 -17.3928,-19.06314 -22.623,-37.42303 -1.4589,-5.12145 -2.6952,-8.38092 -2.7473,-7.24326 -0.052,1.13767 1.3354,6.98767 3.0834,13 l 3.1781,10.93152 -24.1781,-0.0522 c -21.1033,-0.0456 -23.6694,-0.27421 -20.1781,-1.798 5.3307,-2.32658 13.0814,-11.09276 17.4787,-19.7686 7.2204,-14.24565 13.504,-37.80483 14.0991,-52.86183 0.1715,-4.33738 0.4969,-2.99838 1.0889,4.48062 L 2119.511,934 l 0.2445,-12.02276 c 0.3396,-16.7003 -2.0982,-52.49362 -4.4547,-65.40533 -3.795,-20.7935 -11.6122,-39.2965 -20.8246,-49.29079 -16.1712,-17.54363 -35.327,-6.62178 -47.341,26.99183 -2.4577,6.87637 -4.435,13.22801 -4.3939,14.11477 0.041,0.88675 1.7043,-2.88772 3.6961,-8.38772 4.3138,-11.91131 10.8878,-21.90449 16.2259,-24.66493 12.3015,-6.36133 24.7209,2.44528 32.55,23.08109 7.4785,19.71203 8.0604,23.91748 8.0604,58.25051 0,34.33302 -0.5819,38.53847 -8.0604,58.2505 -7.9339,20.91218 -20.6827,29.73451 -32.8745,22.7495 -2.2399,-1.28334 -6.3768,-5.93334 -9.193,-10.33334 -5.6755,-8.8672 -6.6522,-8.55774 -2.1041,0.66667 l 2.9583,6 -27.3333,-0.66667 c -25.5044,-0.62205 -27.6103,-0.86419 -31.4719,-3.61875 -4.4722,-3.19011 -9.832,-9.71609 -12.3588,-15.04791 l -1.5797,-3.33334 2.3719,3.32137 c 12.1572,17.02415 22.6216,21.2209 33.4159,13.40152 6.0316,-4.36923 10.4965,-11.2566 16.6865,-25.73945 l 4.1244,-9.6501 0.2306,-31.33334 c 0.1682,-22.84676 0.7856,-33.68068 2.2797,-40 2.2955,-9.70921 2.0041,-11.80566 -4.6817,-33.68811 -3.9647,-12.97614 -10.9191,-25.59893 -17.1605,-31.14766 -1.7544,-1.55967 -5.4484,-3.55904 -8.2089,-4.44303 -4.4184,-1.41494 -5.7313,-1.26248 -10.971,1.27404 -3.2736,1.58472 -7.8718,5.38409 -10.2182,8.44304 -5.7249,7.46349 -7.469,9.0913 -4.5303,4.22839 4.5981,-7.60895 9.4458,-11.70481 19.1458,-16.17641 l 9.7406,-4.49026 22.2594,0.013 c 23.6863,0.0139 25.8276,0.50319 39.1234,8.94084 3.3169,2.10493 3.8464,2.09813 8.7481,-0.11223 4.4792,-2.01986 8.5075,-2.29302 28.4694,-1.93053 21.6238,0.39266 23.7015,0.65187 29.672,3.70187 3.531,1.8038 8.6654,5.20165 11.4099,7.55078 l 4.9898,4.27115 8.5901,-3.84678 c 8.5356,-3.82237 8.7602,-3.84702 35.3912,-3.88412 28.1435,-0.0392 31.7814,0.52041 41.0413,6.3134 2.9111,1.82117 5.5364,2.686 6,1.97653 2.8405,-4.34682 11.3883,-5.48309 17.4943,-2.32554 7.6328,3.94706 18.1627,24.72819 20.6052,40.66494 0.5058,3.3 1.2118,7.03609 1.5689,8.30243 0.6027,2.13716 0.2508,2.16182 -4.9028,0.34352 -5.1794,-1.82738 -5.4919,-1.80293 -4.6558,0.36424 7.4012,19.18197 12.0866,55.2511 10.2938,79.24386 -0.531,7.1064 -0.8045,13.4064 -0.6078,14 0.1967,0.5936 7.287,0.91509 15.756,0.71442 12.0812,-0.28625 16.0232,0.0728 18.2988,1.66667 3.656,2.56076 11.5028,2.55503 14.8952,-0.0109 1.6344,-1.23622 5.6581,-1.9576 10.9191,-1.9576 h 8.3309 l -2.0701,6.07547 C 2350.3772,969.27353 2339.8681,980 2331.0085,980 c -6.8648,0 -12.1577,-3.75327 -17.8627,-12.66667 -5.6755,-8.8672 -6.6522,-8.55774 -2.1041,0.66667 l 2.9583,6 -14.7131,-0.40921 -14.7131,-0.40922 -3.1231,9.74255 c -5.8104,18.12608 -21.0366,43.95298 -28.1598,47.76528 -1.467,0.7851 -18.9227,1.2624 -43.5366,1.1903 -27.76,-0.081 -39.6931,-0.5232 -36.7885,-1.3625 z m -7.2042,-47.90121 c 1.9,-1.49454 5.3024,-6.47089 7.5609,-11.05856 12.5965,-25.58715 12.5965,-78.86104 0,-104.44819 -4.9614,-10.07799 -9.2534,-13.77591 -15.9892,-13.77591 -6.7357,0 -11.0278,3.69792 -15.9891,13.77591 -12.5965,25.58715 -12.5965,78.86104 0,104.44819 4.9613,10.07799 9.2534,13.7759 15.9891,13.7759 2.9857,0 6.3545,-1.08613 8.4283,-2.71734 z M 2123.5775,963.75 c -0.4256,-1.06364 -0.7416,-0.7477 -0.8056,0.80556 -0.058,1.40555 0.2573,2.19305 0.7003,1.75 0.4431,-0.44306 0.4904,-1.59306 0.1053,-2.55556 z m -1.3333,-8 c -0.4257,-1.06364 -0.7416,-0.7477 -0.8056,0.80556 -0.058,1.40555 0.2572,2.19305 0.7003,1.75 0.443,-0.44306 0.4904,-1.59306 0.1053,-2.55556 z m -43.8205,-5.14315 c 8.3359,-7.7661 13.4926,-24.81205 14.5263,-48.01863 1.5724,-35.30058 -8.5297,-63.92155 -22.5617,-63.92155 -8.211,0 -13.2685,6.71885 -18.5676,24.66666 -2.752,9.32088 -3.1493,13.44235 -3.1493,32.66667 0,19.22432 0.3973,23.34579 3.1493,32.66667 3.6904,12.49927 5.3696,16.03213 9.9814,21 4.2961,4.6277 12.1846,5.0739 16.6216,0.94018 z M 2120.883,945 c -0.3698,-0.91667 -0.6725,-0.16667 -0.6725,1.66667 0,1.83333 0.3027,2.58333 0.6725,1.66666 0.3699,-0.91666 0.3699,-2.41666 0,-3.33333 z m 0.041,-53.97462 c -0.3381,-1.29729 -0.6369,-0.55871 -0.6641,1.64129 -0.027,2.2 0.2495,3.26142 0.6147,2.35871 0.3652,-0.90271 0.3874,-2.70271 0.049,-4 z M 2122.2164,881 c -0.3699,-0.91667 -0.6725,-0.16667 -0.6725,1.66667 0,1.83333 0.3026,2.58333 0.6725,1.66666 0.3699,-0.91666 0.3699,-2.41666 0,-3.33333 z m 310.7494,149.5172 c 7.2395,-2.0921 17.0446,-13.274 23.602,-26.9163 11.4056,-23.72854 15.8743,-47.4505 15.8743,-84.26757 0,-36.81707 -4.4687,-60.53903 -15.8743,-84.26758 -17.8906,-37.22024 -43.1574,-37.22024 -61.1787,0 -5.3801,11.11178 -12.8688,35.28192 -12.6247,40.74688 0.054,1.20306 1.5576,-3.13509 3.342,-9.64032 C 2393.6411,838.70393 2404.7612,824 2418,824 c 21.7711,0 37.9843,40.97653 37.9843,96 0,55.02347 -16.2132,96 -37.9843,96 -2.6395,0 -6.4802,-0.8694 -8.535,-1.9319 -8.5377,-4.415 -17.3928,-19.06314 -22.623,-37.42303 -1.4589,-5.12145 -2.6952,-8.38092 -2.7473,-7.24326 -0.052,1.13767 1.3354,6.98767 3.0834,13 l 3.1781,10.93152 -24.1781,-0.0522 c -21.1033,-0.0456 -23.6694,-0.27421 -20.1781,-1.798 9.7207,-4.24264 20.376,-21.72327 26.2956,-43.13971 l 3.0377,-10.9899 8.308,-0.0101 c 7.5476,-0.009 8.3644,0.26446 8.9255,2.9899 3.9918,19.38857 5.4932,24.69485 8.9369,31.58629 4.8923,9.79044 9.1682,13.41371 15.8296,13.41371 6.7358,0 11.0278,-3.69791 15.9892,-13.7759 12.5965,-25.58715 12.5965,-78.86104 0,-104.44819 -2.2585,-4.58767 -5.6609,-9.56402 -7.5609,-11.05856 -4.5112,-3.54852 -12.3299,-3.56065 -16.8233,-0.0261 -4.7775,3.75795 -11.0376,16.90934 -13.6603,28.6979 l -2.2123,9.9442 h -5.8662 c -5.1552,0 -5.8823,-0.36362 -5.9991,-3 -0.1265,-2.85605 -0.1791,-2.84006 -1.0954,0.33333 -0.632,2.18848 -1.3081,-1.70401 -1.9686,-11.33333 -2.2758,-33.17717 -10.7096,-59.33576 -23.6602,-73.38555 -16.1712,-17.54363 -35.327,-6.62178 -47.341,26.99183 -2.4577,6.87637 -4.435,13.22801 -4.3939,14.11477 0.041,0.88675 1.7043,-2.88772 3.6961,-8.38772 8.3171,-22.96556 20.4896,-31.78225 33.1889,-24.03914 11.2437,6.85554 21.3987,31.31822 23.6784,57.03914 0.9388,10.59186 0.7376,10.83431 -6.4866,7.81587 -3.7787,-1.57885 -4.5635,-2.70532 -5.341,-7.66666 -3.1694,-20.22506 -11.8891,-34.48254 -21.0888,-34.48254 -7.4744,0 -13.9157,7.64722 -17.103,20.30496 l -1.5211,6.04112 -6.5489,-2.09426 c -3.6019,-1.15184 -6.0462,-2.42971 -5.4318,-2.8397 2.1614,-1.44234 2.7367,-7.26243 1.3152,-13.3051 -9.5372,-40.54122 -24.5965,-60.80946 -40.3049,-54.24606 -2.6226,1.09577 -6.274,3.49804 -8.1144,5.3384 -1.8403,1.84035 -3.3461,2.87795 -3.3461,2.30578 0,-2.27524 6.4617,-6.86794 15.1243,-10.74977 9.0073,-4.03626 9.4092,-4.08854 31.3334,-4.07568 23.6296,0.0139 25.7821,0.5064 39.0729,8.94084 3.3169,2.10493 3.8464,2.09813 8.7481,-0.11223 4.4792,-2.01986 8.5075,-2.29302 28.4694,-1.93053 21.6238,0.39266 23.7015,0.65187 29.672,3.70187 3.531,1.8038 8.6654,5.20165 11.4099,7.55078 l 4.9898,4.27115 8.5901,-3.84678 c 8.5583,-3.83254 8.6918,-3.84692 36.0578,-3.88412 17.1991,-0.0234 29.1621,0.53327 32,1.48899 7.8235,2.6347 20.6774,12.74909 27.2534,21.44502 13.4,17.71988 22.9465,43.27791 26.6133,71.24973 5.0087,38.20849 -0.2534,76.79103 -14.5177,106.44562 -5.9978,12.4691 -16.6159,27.7518 -20.8591,30.0227 -1.467,0.7851 -18.9227,1.2624 -43.5366,1.1903 -27.76,-0.081 -39.6931,-0.5232 -36.7885,-1.3625 z M 2383.5775,963.75 c -0.4256,-1.06364 -0.7416,-0.7477 -0.8056,0.80556 -0.058,1.40555 0.2573,2.19305 0.7003,1.75 0.4431,-0.44306 0.4904,-1.59306 0.1053,-2.55556 z m -1.3333,-8 c -0.4257,-1.06364 -0.7416,-0.7477 -0.8056,0.80556 -0.058,1.40555 0.2572,2.19305 0.7003,1.75 0.443,-0.44306 0.4904,-1.59306 0.1053,-2.55556 z M 2380.883,945 c -0.3698,-0.91667 -0.6725,-0.16667 -0.6725,1.66667 0,1.83333 0.3027,2.58333 0.6725,1.66666 0.3699,-0.91666 0.3699,-2.41666 0,-3.33333 z m 1.3334,-64 c -0.3699,-0.91667 -0.6725,-0.16667 -0.6725,1.66667 0,1.83333 0.3026,2.58333 0.6725,1.66666 0.3699,-0.91666 0.3699,-2.41666 0,-3.33333 z M 141.33333,1030.1427 c 0,-0.2883 0.93117,-0.8814 2.06925,-1.3181 1.18657,-0.4553 1.72177,-0.2318 1.25465,0.524 -0.78301,1.2669 -3.3239,1.8739 -3.3239,0.7941 z m 260,0 c 0,-0.2883 0.93117,-0.8814 2.06925,-1.3181 1.18657,-0.4553 1.72177,-0.2318 1.25465,0.524 -0.78301,1.2669 -3.3239,1.8739 -3.3239,0.7941 z m 1754.00947,-0.7941 c -0.4671,-0.7558 0.068,-0.9793 1.2546,-0.524 2.3099,0.8864 2.7325,1.8421 0.8146,1.8421 -0.69,0 -1.6212,-0.5932 -2.0692,-1.3181 z m 260,0 c -0.4671,-0.7558 0.068,-0.9793 1.2546,-0.524 2.3099,0.8864 2.7325,1.8421 0.8146,1.8421 -0.69,0 -1.6212,-0.5932 -2.0692,-1.3181 z M 152.05265,1022 c 3.27539,-3.6667 7.02962,-8.1667 8.34273,-10 2.3062,-3.2199 2.30741,-3.1855 0.0355,1.0108 -1.29356,2.3892 -5.04779,6.8892 -8.34273,10 l -5.9908,5.6559 z m 260,0 c 3.27539,-3.6667 7.02962,-8.1667 8.34273,-10 2.3062,-3.2199 2.30741,-3.1855 0.0355,1.0108 -1.29356,2.3892 -5.04779,6.8892 -8.34273,10 l -5.9908,5.6559 z m 1734.31095,-0.4159 c -3.3008,-3.5288 -6.7002,-7.8788 -7.5543,-9.6667 l -1.553,-3.2507 2.3679,3.3333 c 1.3023,1.8333 5.0018,6.1833 8.221,9.6667 3.2192,3.4833 5.553,6.3333 5.1864,6.3333 -0.3667,0 -3.3673,-2.8872 -6.668,-6.4159 z m 260,0 c -3.3008,-3.5288 -6.7002,-7.8788 -7.5543,-9.6667 l -1.553,-3.2507 2.3679,3.3333 c 1.3023,1.8333 5.0018,6.1833 8.221,9.6667 3.2192,3.4833 5.553,6.3333 5.1864,6.3333 -0.3667,0 -3.3673,-2.8872 -6.668,-6.4159 z M 166.7075,999.33333 C 166.7075,998.6 167.28913,997.1 168,996 c 0.71087,-1.1 1.2925,-1.4 1.2925,-0.66667 0,0.73334 -0.58163,2.23334 -1.2925,3.33334 -0.71087,1.1 -1.2925,1.40003 -1.2925,0.66666 z m 260,0 C 426.7075,998.6 427.28913,997.1 428,996 c 0.71087,-1.1 1.2925,-1.4 1.2925,-0.66667 0,0.73334 -0.58163,2.23334 -1.2925,3.33334 -0.71087,1.1 -1.2925,1.40003 -1.2925,0.66666 z m 1704.7906,-1.38488 c -1.2867,-3.35292 -0.9071,-4.21807 0.6647,-1.51511 0.7782,1.33833 1.1341,2.71421 0.7908,3.0575 -0.3433,0.34329 -0.9983,-0.35078 -1.4555,-1.54239 z m 260,0 c -1.2867,-3.35292 -0.9071,-4.21807 0.6647,-1.51511 0.7782,1.33833 1.1341,2.71421 0.7908,3.0575 -0.3433,0.34329 -0.9983,-0.35078 -1.4555,-1.54239 z M 219.66667,993.78363 c 0.91666,-0.36989 2.41666,-0.36989 3.33333,0 0.91667,0.36988 0.16667,0.67251 -1.66667,0.67251 -1.83333,0 -2.58333,-0.30263 -1.66666,-0.67251 z m 260,0 c 0.91666,-0.36989 2.41666,-0.36989 3.33333,0 0.91667,0.36988 0.16667,0.67251 -1.66667,0.67251 -1.83333,0 -2.58333,-0.30263 -1.66666,-0.67251 z m 1597.33333,0 c 0.9167,-0.36989 2.4167,-0.36989 3.3333,0 0.9167,0.36988 0.1667,0.67251 -1.6666,0.67251 -1.8334,0 -2.5834,-0.30263 -1.6667,-0.67251 z m 260,0 c 0.9167,-0.36989 2.4167,-0.36989 3.3333,0 0.9167,0.36988 0.1667,0.67251 -1.6666,0.67251 -1.8334,0 -2.5834,-0.30263 -1.6667,-0.67251 z M 226.66667,992 c 1.1,-0.71087 2.6,-1.2925 3.33333,-1.2925 0.73333,0 0.43333,0.58163 -0.66667,1.2925 -1.1,0.71087 -2.6,1.2925 -3.33333,1.2925 -0.73333,0 -0.43333,-0.58163 0.66667,-1.2925 z m 260,0 c 1.1,-0.71087 2.6,-1.2925 3.33333,-1.2925 0.73333,0 0.43333,0.58163 -0.66667,1.2925 -1.1,0.71087 -2.6,1.2925 -3.33333,1.2925 -0.73333,0 -0.43333,-0.58163 0.66667,-1.2925 z m 1584.00003,0 c -1.1,-0.71087 -1.4,-1.2925 -0.6667,-1.2925 0.7333,0 2.2333,0.58163 3.3333,1.2925 1.1,0.71087 1.4,1.2925 0.6667,1.2925 -0.7333,0 -2.2333,-0.58163 -3.3333,-1.2925 z m 260,0 c -1.1,-0.71087 -1.4,-1.2925 -0.6667,-1.2925 0.7333,0 2.2333,0.58163 3.3333,1.2925 1.1,0.71087 1.4,1.2925 0.6667,1.2925 -0.7333,0 -2.2333,-0.58163 -3.3333,-1.2925 z M 237.95349,984 c 3.59208,-4.03333 6.8033,-7.63333 7.13605,-8 0.33275,-0.36667 -0.0288,0.53333 -0.80338,2 -0.77462,1.46667 -3.98584,5.06667 -7.13605,8 -5.64642,5.25769 -5.63503,5.22932 0.80338,-2 z m 260,0 c 3.59208,-4.03333 6.8033,-7.63333 7.13605,-8 0.33275,-0.36667 -0.0288,0.53333 -0.80338,2 -0.77462,1.46667 -3.98584,5.06667 -7.13605,8 -5.64642,5.25769 -5.63503,5.22932 0.80338,-2 z m 1562.89561,0.0571 c -3.4003,-3.63525 -6.1824,-7.03525 -6.1824,-7.55555 0,-0.52031 0.1909,-0.69601 0.4244,-0.39046 0.2334,0.30556 3.3155,3.70556 6.8491,7.55556 3.5336,3.85 6.1247,7 5.758,7 -0.3666,0 -3.4487,-2.9743 -6.8491,-6.60955 z m 260,0 c -3.4003,-3.63525 -6.1824,-7.03525 -6.1824,-7.55555 0,-0.52031 0.1909,-0.69601 0.4244,-0.39046 0.2334,0.30556 3.3155,3.70556 6.8491,7.55556 3.5336,3.85 6.1247,7 5.758,7 -0.3666,0 -3.4487,-2.9743 -6.8491,-6.60955 z M 553.39433,958.30471 C 544.23078,953.66746 534.79619,933.11489 531.43269,910.46287 523.79134,859.00103 538.89425,804 560.66667,804 c 5.72467,0 11.02895,3.65323 15.98103,11.00663 4.92247,7.30945 5.60623,7.60516 3.26842,1.4135 -0.87491,-2.31719 -0.90749,-3.24326 -0.0851,-2.42013 2.47217,2.47451 8.2927,22.57864 10.22969,35.33333 2.48519,16.36459 2.47581,48.45863 -0.019,65.00878 -1.82325,12.09513 -6.67766,29.05781 -9.90128,34.59786 -1.79999,3.09344 -1.88389,1.09603 -0.11316,-2.69429 1.2756,-2.7305 1.25479,-2.74617 -0.33334,-0.25088 -0.93164,1.4638 -4.16494,5.2138 -7.18512,8.33333 -4.61805,4.76997 -6.31419,5.66874 -10.66666,5.65221 -2.8465,-0.0108 -6.648,-0.76484 -8.44778,-1.67563 z M 570.1347,931.28208 C 577.38455,923.595 582.66667,902.82301 582.66667,882 c 0,-29.57242 -9.50875,-54 -21.02019,-54 -11.74093,0 -19.76768,18.18747 -21.23656,48.119 -2.05803,41.93683 14.03394,71.80021 29.72478,55.16308 z m 1417.5267,23.2162 c -3.1138,-3.21311 -6.4237,-7.03968 -7.3553,-8.50348 -1.5881,-2.49529 -1.6089,-2.47962 -0.3333,0.25088 1.7707,3.79032 1.6868,5.78773 -0.1132,2.69429 -3.2236,-5.54005 -8.078,-22.50273 -9.9013,-34.59786 -2.4948,-16.55015 -2.5042,-48.64419 -0.019,-65.00878 1.937,-12.75469 7.7576,-32.85882 10.2297,-35.33333 0.8224,-0.82313 0.7898,0.10294 -0.085,2.42013 -2.3378,6.19166 -1.6541,5.89595 3.2684,-1.4135 16.9499,-25.16918 38.5054,-5.62397 45.4155,41.17999 2.5681,17.39439 1.9647,45.91855 -1.312,62.02213 -2.6769,13.15587 -9.3589,28.58782 -15.2556,35.23256 -4.3347,4.88464 -5.7792,5.64041 -11.9053,6.22905 -6.8178,0.6551 -7.0975,0.54058 -12.6335,-5.17208 z m 19.8118,-23.22165 c 8.3383,-8.84124 13.2848,-31.35825 12.1169,-55.15763 -1.4689,-29.93153 -9.4956,-48.119 -21.2366,-48.119 -11.5114,0 -21.0202,24.42758 -21.0202,54 0,39.27452 15.5681,64.72724 30.1399,49.27663 z"
     id="path3-3"
     inkscape:label="pneu" /><path
     style="display:inline;fill:#454545"
     d="m 137.22809,983.35687 c -6.9255,-3.76566 -13.85867,-18.14864 -17.36479,-36.02354 -1.02045,-5.20241 -1.83072,-17.59517 -1.83072,-28 0,-26.33509 4.09412,-44.77067 12.76444,-57.47754 4.79426,-7.02626 10.29481,-9.4983 15.93572,-7.16176 7.20749,2.98545 15.76051,19.01453 17.95516,33.64949 l 0.93556,6.23874 -16.4784,0.37554 -16.47839,0.37553 -0.36719,21 -0.36719,21 h 17.36719 c 19.74386,0 18.41018,-1.13254 15.41782,13.09265 -3.52241,16.74493 -10.02213,29.44515 -16.886,32.99459 -4.53037,2.34275 -6.19589,2.33274 -10.60321,-0.0637 z m 260,0 c -6.9255,-3.76566 -13.85867,-18.14864 -17.36479,-36.02354 -1.02045,-5.20241 -1.83072,-17.59517 -1.83072,-28 0,-26.33509 4.09412,-44.77067 12.76444,-57.47754 12.25859,-17.96568 27.99053,-4.59104 34.67302,29.47754 1.02044,5.20242 1.83071,17.59518 1.83071,28 0,10.40483 -0.81027,22.79759 -1.83071,28 -3.57112,18.20625 -10.50887,32.40024 -17.63874,36.08724 -4.53037,2.34275 -6.19589,2.33274 -10.60321,-0.0637 z m 10.49218,-13.3261 c 5.20949,-4.3835 9.09136,-13.78404 11.57632,-28.03385 5.06229,-29.02935 -0.45677,-64.00454 -11.57632,-73.36103 -2.15868,-1.8164 -5.0328,-3.30256 -6.38694,-3.30256 -1.35413,0 -4.22825,1.48616 -6.38693,3.30256 -17.81126,14.98719 -17.81126,86.4077 0,101.39488 2.15868,1.81641 5.0328,3.30256 6.38693,3.30256 1.35414,0 4.22826,-1.48615 6.38694,-3.30256 z m 1744.17453,13.3261 c -6.9255,-3.76566 -13.8587,-18.14864 -17.3648,-36.02354 -1.0205,-5.20241 -1.8308,-17.59517 -1.8308,-28 0,-26.33509 4.0942,-44.77067 12.7645,-57.47754 12.2586,-17.96568 27.9905,-4.59104 34.673,29.47754 1.0204,5.20242 1.8307,17.59518 1.8307,28 0,10.40483 -0.8103,22.79759 -1.8307,28 -3.5711,18.20625 -10.5089,32.40024 -17.6387,36.08724 -4.5304,2.34275 -6.1959,2.33274 -10.6032,-0.0637 z m 13.1588,-13.3261 c 5.2095,-4.3835 9.0914,-13.78404 11.5763,-28.03385 5.0623,-29.02935 -0.4567,-64.00454 -11.5763,-73.36103 -2.1587,-1.8164 -5.0328,-3.30256 -6.3869,-3.30256 -3.9896,0 -10.1024,6.11835 -13.1192,13.13099 -11.424,26.55572 -7.5263,79.5687 6.7322,91.56645 2.1587,1.81641 5.0328,3.30256 6.387,3.30256 1.3541,0 4.2282,-1.48615 6.3869,-3.30256 z m 246.8412,13.3261 c -6.6602,-3.6214 -13.155,-16.49622 -16.6121,-32.93089 -2.9924,-14.22519 -4.326,-13.09265 15.4178,-13.09265 h 17.3672 l -0.3672,-21 -0.3672,-21 -16.4784,-0.37553 -16.4784,-0.37554 0.9356,-6.23874 c 1.2721,-8.48299 5.6364,-19.87051 10.1516,-26.48773 12.2586,-17.96568 27.9905,-4.59104 34.673,29.47754 1.0204,5.20242 1.8307,17.59518 1.8307,28 0,10.40483 -0.8103,22.79759 -1.8307,28 -3.5711,18.20625 -10.5089,32.40024 -17.6387,36.08724 -4.5304,2.34275 -6.1959,2.33274 -10.6032,-0.0637 z M 224.58817,951.37574 c -1.85477,-1.40288 -6.27852,-1.96961 -15.61146,-2 l -13.0233,-0.0424 0.35663,-32.82229 0.35663,-32.82229 5.98834,-2.21137 c 5.72244,-2.11317 6.02943,-2.49865 6.91387,-8.68162 2.42674,-16.96501 12.34167,-34.12909 19.71487,-34.12909 4.7304,0 12.62907,8.92288 15.34372,17.33333 1.30184,4.03333 2.78701,7.79711 3.30038,8.36395 0.51336,0.56684 7.78903,-1.33374 16.16814,-4.22352 8.3791,-2.88978 15.40576,-5.08313 15.61478,-4.87411 0.20902,0.20902 -1.14492,5.64234 -3.00875,12.07403 -5.21904,18.00981 -7.78245,40.86694 -6.97941,62.23326 0.57648,15.33822 0.37056,18.36116 -1.29424,19 -1.08889,0.41785 -8.68073,0.77881 -16.87075,0.80213 -10.97626,0.0312 -15.57136,0.55704 -17.47913,2 -1.42349,1.07668 -3.55881,1.95759 -4.74516,1.95759 -1.18634,0 -3.32166,-0.88091 -4.74516,-1.95759 z m 256.74553,-3.06165 c -3.74263,-3.74262 -5.97292,-7.89691 -8.76881,-16.33333 -3.53621,-10.67026 -3.75381,-12.67982 -3.8239,-35.31409 -0.0712,-23.00025 0.0872,-24.49292 3.80389,-35.83291 4.27315,-13.03791 11.1668,-22.16709 16.73887,-22.16709 5.70321,0 12.71118,8.93802 16.74175,21.35257 3.11385,9.59098 3.77129,14.28012 4.31679,30.78927 0.96141,29.09647 -4.20371,50.45583 -14.24425,58.90439 -5.76774,4.85324 -8.79954,4.566 -14.76434,-1.39881 z m 12.94458,-8.64742 c 6.95665,-7.60811 11.05505,-23.7965 11.05505,-43.66667 0,-41.48686 -18.20465,-62.10466 -29.10705,-32.96539 -7.05444,18.85467 -7.32337,43.64546 -0.70203,64.71404 4.09581,13.03252 12.72231,18.51458 18.75403,11.91802 z M 2063.902,949.7129 c -10.0406,-8.44856 -15.2057,-29.80792 -14.2443,-58.90439 0.5455,-16.50915 1.2029,-21.19829 4.3168,-30.78927 4.0306,-12.41455 11.0385,-21.35257 16.7418,-21.35257 5.572,0 12.4657,9.12918 16.7388,22.16709 3.7167,11.33999 3.8751,12.83266 3.8039,35.83291 -0.07,22.63427 -0.2877,24.64383 -3.8239,35.31409 -2.7959,8.43642 -5.0262,12.59071 -8.7688,16.33333 -5.9648,5.96481 -8.9966,6.25205 -14.7643,1.39881 z m 14.6881,-10.96425 c 11.4432,-12.24997 14.1478,-51.75507 5.1836,-75.71404 -10.9024,-29.13927 -29.107,-8.52147 -29.107,32.96539 0,33.84162 12.0799,55.42716 23.9234,42.74865 z m 247.3314,12.62709 c -1.9078,-1.44296 -6.5029,-1.96875 -17.4791,-2 -8.19,-0.0233 -15.7819,-0.38428 -16.8708,-0.80213 -1.6648,-0.63884 -1.8707,-3.66178 -1.2942,-19 0.803,-21.36632 -1.7604,-44.22345 -6.9794,-62.23326 -1.8639,-6.43169 -3.2178,-11.86501 -3.0088,-12.07403 0.2091,-0.20902 7.2357,1.98433 15.6148,4.87411 8.3791,2.88978 15.6548,4.79036 16.1682,4.22352 0.5133,-0.56684 1.9985,-4.33062 3.3003,-8.36395 2.7147,-8.41045 10.6133,-17.33333 15.3438,-17.33333 7.3732,0 17.2881,17.16408 19.7148,34.12909 0.8845,6.18297 1.1914,6.56845 6.9139,8.68162 l 5.9883,2.21137 0.3567,32.82229 0.3566,32.82229 -13.0233,0.0424 c -9.333,0.0304 -13.7567,0.59712 -15.6115,2 -1.4235,1.07668 -3.5588,1.95759 -4.7451,1.95759 -1.1864,0 -3.3217,-0.88091 -4.7452,-1.95759 z M 553.60814,930.10928 c -17.89194,-20.37779 -15.62376,-88.71937 3.31149,-99.77722 3.88005,-2.26588 4.5934,-2.30762 8.13534,-0.47601 5.11778,2.64651 7.52843,6.54771 11.78829,19.07725 4.24891,12.49732 5.83755,38.2342 3.27011,52.97756 -3.30904,19.00191 -11.19463,32.75581 -18.78004,32.75581 -2.56936,0 -4.96422,-1.41282 -7.72519,-4.55739 z M 567.14588,921 c 6.35374,-8.39009 8.18745,-17.12476 8.18745,-39 0,-22.27869 -2.00731,-31.96827 -8.12999,-39.24466 -3.94361,-4.68672 -9.58879,-5.45871 -12.8359,-1.75534 -6.91558,7.8873 -11.04338,27.0087 -9.99037,46.27882 1.62257,29.69313 13.02766,46.58434 22.76881,33.72118 z m 1423.79562,9.10928 c -8.7402,-9.95456 -12.9342,-28.86654 -11.9678,-53.96666 0.5203,-13.51273 1.3406,-18.84889 4.183,-27.20932 4.2599,-12.52954 6.6705,-16.43074 11.7883,-19.07725 18.8713,-9.75873 31.6769,52.32096 18.2147,88.30205 -3.6394,9.72719 -9.5929,16.50857 -14.493,16.50857 -2.5694,0 -4.9643,-1.41282 -7.7252,-4.55739 z m 15.132,-8.3146 c 8.2269,-8.87691 12.2216,-38.32655 8.015,-59.08712 -3.3892,-16.72639 -7.7025,-24.04089 -14.1766,-24.04089 -4.9231,0 -9.9099,6.09032 -12.9004,15.75533 -3.408,11.01393 -3.3419,44.59727 0.1081,54.91133 5.0416,15.07264 12.1827,19.76758 18.9539,12.46135 z M 336,629.33333 h 26.66667 v 60 H 336 Z m 1861.3333,0 H 2224 v 60 h -26.6667 z M 369.19713,627.41751 c 7.09169,-0.69983 14.37314,0.37392 21.46954,0.97379 V 676 h -21 c -3.28545,-16.42714 -1.13118,-48.17357 -0.46954,-48.58249 z m 1800.13617,0.97379 c 7.0183,0.071 14.4978,-2.44651 21.4696,-0.97379 0.6614,0.40876 2.8161,32.15535 -0.4696,48.58249 h -21 z"
     id="path7-5"
     sodipodi:nodetypes="sssssscccccssssssssssssssssssssssssssssssssssssssssscccccssssssssscccsssssssssssssssssssssssssssssssssssssssssssssssssssssscccsssssssssssssssssssssssssssssssccccccccccscccscsccc" /><path
     style="display:inline;fill:#738a8a"
     d="M 1281.9282,668.4714 C 1185.8574,668.4714 370.8088,705.98175 0.18914367,342 L 0,0 h 2560 l -0.19,342 C 2174.5177,704.60397 1370.7269,668.4714 1281.9282,668.4714 Z"
     id="path10"
     sodipodi:nodetypes="cccccc"
     inkscape:label="avion" /><path
     style="display:inline;fill:#000000"
     d="m 127.03424,1030.5172 c -7.23957,-2.0921 -17.04464,-13.274 -23.60206,-26.9163 -11.405567,-23.72854 -15.874303,-47.4505 -15.874303,-84.26757 0,-36.81707 4.468736,-60.53903 15.874303,-84.26758 17.89059,-37.22024 43.15741,-37.22024 61.17873,0 5.38011,11.11178 12.86881,35.28192 12.62473,40.74688 -0.0537,1.20306 -1.55767,-3.13509 -3.34208,-9.64032 C 166.35889,838.70393 155.23878,824 142,824 c -21.77111,0 -37.98428,40.97653 -37.98428,96 0,55.02347 16.21317,96 37.98428,96 2.6395,0 6.48023,-0.8694 8.53495,-1.9319 8.53774,-4.415 17.39283,-19.06314 22.62301,-37.42303 1.45895,-5.12145 2.69525,-8.45001 2.74734,-7.39679 0.0521,1.05323 -1.1699,6.45323 -2.71551,12 -6.29897,22.60522 -19.41897,42.92322 -31.16136,48.25742 -5.90848,2.6841 -8.582,2.8644 -14.99419,1.0115 z m 260,0 c -7.23957,-2.0921 -17.04464,-13.274 -23.60206,-26.9163 -11.40557,-23.72854 -15.8743,-47.4505 -15.8743,-84.26757 0,-36.81707 4.46873,-60.53903 15.8743,-84.26758 17.89059,-37.22024 43.15741,-37.22024 61.17873,0 5.38011,11.11178 12.86881,35.28192 12.62473,40.74688 -0.0537,1.20306 -1.55767,-3.13509 -3.34208,-9.64032 C 426.35889,838.70393 415.23878,824 402,824 c -21.77111,0 -37.98428,40.97653 -37.98428,96 0,55.02347 16.21317,96 37.98428,96 2.6395,0 6.48023,-0.8694 8.53495,-1.9319 8.53774,-4.415 17.39283,-19.06314 22.62301,-37.42303 1.45895,-5.12145 2.69525,-8.45001 2.74734,-7.39679 0.0521,1.05323 -1.1699,6.45323 -2.71551,12 -6.29897,22.60522 -19.41897,42.92322 -31.16136,48.25742 -5.90848,2.6841 -8.582,2.8644 -14.99419,1.0115 z m 1770.93736,-0.9487 c -11.8119,-5.504 -24.875,-25.7603 -31.1614,-48.32022 -1.5456,-5.54677 -2.7676,-10.94677 -2.7155,-12 0.052,-1.05322 1.2884,2.27534 2.7473,7.39679 12.6934,44.55833 38.8651,52.91213 55.6297,17.75657 8.9863,-18.84414 13.5126,-43.76655 13.5126,-74.40164 0,-55.02347 -16.2132,-96 -37.9843,-96 -13.2388,0 -24.3589,14.70393 -31.8936,42.17231 -1.7844,6.50523 -3.2883,10.84338 -3.342,9.64032 -0.2441,-5.46496 7.2446,-29.6351 12.6247,-40.74688 18.0213,-37.22024 43.2881,-37.22024 61.1787,0 11.4056,23.72855 15.8743,47.45051 15.8743,84.26758 0,17.68998 -0.6823,29.35616 -2.2613,38.66667 -8.7871,51.8098 -30.5602,81.6564 -52.2092,71.5685 z m 260,0 c -11.8119,-5.504 -24.875,-25.7603 -31.1614,-48.32022 -1.5456,-5.54677 -2.7676,-10.94677 -2.7155,-12 0.052,-1.05322 1.2884,2.27534 2.7473,7.39679 12.6934,44.55833 38.8651,52.91213 55.6297,17.75657 8.9863,-18.84414 13.5126,-43.76655 13.5126,-74.40164 0,-55.02347 -16.2132,-96 -37.9843,-96 -13.2388,0 -24.3589,14.70393 -31.8936,42.17231 -1.7844,6.50523 -3.2883,10.84338 -3.342,9.64032 -0.2441,-5.46496 7.2446,-29.6351 12.6247,-40.74688 18.0213,-37.22024 43.2881,-37.22024 61.1787,0 11.4056,23.72855 15.8743,47.45051 15.8743,84.26758 0,17.68998 -0.6823,29.35616 -2.2613,38.66667 -8.7871,51.8098 -30.5602,81.6564 -52.2092,71.5685 z M 214,991.48314 c -9.2325,-4.02955 -18.76206,-18.8741 -25.17667,-39.21864 -4.6333,-14.69493 -4.60414,-14.93117 1.84334,-14.93117 H 196 v 5.91144 c 0,5.34316 0.32802,5.95199 3.41218,6.33333 2.76838,0.3423 4.00016,1.8734 6.52855,8.11497 7.60409,18.77141 20.09295,26.63534 31.72046,19.9736 2.23995,-1.28334 6.37683,-5.93334 9.19306,-10.33334 5.94361,-9.28614 6.5568,-8.81757 1.75204,1.33885 -4.28869,9.06555 -14.21012,20.18128 -20.27459,22.71518 -5.66037,2.36506 -9.07998,2.38791 -14.3317,0.0958 z m 260,0 c -5.33067,-2.32658 -13.08143,-11.09276 -17.47875,-19.7686 -7.22035,-14.24565 -13.50395,-37.80483 -14.09909,-52.86183 -0.17144,-4.33738 -0.49683,-2.99838 -1.08883,4.48062 L 440.48901,934 l -0.2445,-12.02276 c -0.33964,-16.7003 2.09821,-52.49362 4.45469,-65.40533 3.79496,-20.7935 11.6122,-39.2965 20.82462,-49.29079 16.17115,-17.54363 35.32699,-6.62178 47.34095,26.99183 2.45771,6.87637 4.43499,13.22801 4.39396,14.11477 -0.041,0.88675 -1.70431,-2.88772 -3.69616,-8.38772 -4.31374,-11.91131 -10.88777,-21.90449 -16.22589,-24.66493 -12.30145,-6.36133 -24.72091,2.44528 -32.54994,23.08109 -7.47855,19.71203 -8.06048,23.91748 -8.06048,58.25051 0,34.33302 0.58193,38.53847 8.06048,58.2505 7.93388,20.91218 20.6827,29.73451 32.87445,22.7495 2.23995,-1.28334 6.37683,-5.93334 9.19306,-10.33334 5.94361,-9.28614 6.5568,-8.81757 1.75204,1.33885 -4.28869,9.06555 -14.21012,20.18128 -20.27459,22.71518 -5.66037,2.36506 -9.07998,2.38791 -14.3317,0.0958 z m 1597.1897,-0.18498 c -5.6663,-2.4856 -15.6855,-13.9371 -19.796,-22.62598 -4.8047,-10.15642 -4.1916,-10.62499 1.7521,-1.33885 2.8162,4.4 6.9531,9.05 9.193,10.33334 12.1918,6.98501 24.9406,-1.83732 32.8745,-22.7495 7.4785,-19.71203 8.0604,-23.91748 8.0604,-58.2505 0,-34.33303 -0.5819,-38.53848 -8.0604,-58.25051 -7.8291,-20.63581 -20.2485,-29.44242 -32.55,-23.08109 -5.3381,2.76044 -11.9121,12.75362 -16.2259,24.66493 -1.9918,5.5 -3.6551,9.27447 -3.6961,8.38772 -0.041,-0.88676 1.9362,-7.2384 4.3939,-14.11477 12.014,-33.61361 31.1698,-44.53546 47.341,-26.99183 9.2124,9.99429 17.0296,28.49729 20.8246,49.29079 2.3565,12.91171 4.7943,48.70503 4.4547,65.40533 L 2119.511,934 l -0.8443,-10.66667 c -0.592,-7.479 -0.9174,-8.818 -1.0889,-4.48062 -0.8907,22.53633 -11.4253,52.98792 -22.6245,65.39899 -7.7662,8.60658 -15.1892,10.80769 -23.7636,7.04646 z m 260,0 c -5.6663,-2.4856 -15.6855,-13.9371 -19.796,-22.62598 -4.8047,-10.15642 -4.1916,-10.62499 1.7521,-1.33885 2.8162,4.4 6.9531,9.05 9.193,10.33334 11.6275,6.66174 24.1164,-1.20219 31.7205,-19.9736 2.5284,-6.24157 3.7601,-7.77267 6.5285,-8.11497 3.0842,-0.38134 3.4122,-0.99017 3.4122,-6.33333 v -5.91144 h 5.3333 c 6.4475,0 6.4767,0.23624 1.8434,14.93117 -8.1622,25.88699 -20.5823,41.39681 -32.8005,40.96007 -1.6736,-0.0598 -4.9075,-0.92671 -7.1865,-1.92641 z M 542.95587,968.05622 c -6.03155,-4.36923 -10.4965,-11.2566 -16.68644,-25.73945 l -4.12442,-9.6501 -0.23064,-31.33334 c -0.16818,-22.84676 -0.78561,-33.68068 -2.27964,-40 -2.29548,-9.70921 -2.00414,-11.80566 4.6817,-33.68811 3.96466,-12.97614 10.91905,-25.59893 17.16046,-31.14766 1.75438,-1.55967 5.44837,-3.55904 8.20886,-4.44303 4.42921,-1.41837 5.73065,-1.26281 11.07346,1.3236 6.46073,3.12759 14.92268,13.01041 18.52796,21.63906 3.1629,7.5699 2.46362,7.5671 -2.63947,-0.0106 -16.94992,-25.16918 -38.50542,-5.62397 -45.4155,41.17999 -2.56809,17.39439 -1.9647,45.91855 1.31198,62.02213 2.6769,13.15587 9.35889,28.58782 15.25558,35.23256 4.33473,4.88464 5.7792,5.64041 11.90539,6.22905 6.81772,0.6551 7.09746,0.54058 12.63347,-5.17208 3.11376,-3.21311 6.40193,-7.03968 7.30705,-8.50348 1.32749,-2.14688 1.33866,-1.88808 0.0578,1.33853 -0.87333,2.2 -3.20397,6.4 -5.1792,9.33334 -10.16677,15.09826 -21.03546,19.01957 -31.5684,11.38955 z M 2000,970.5057 c -6.4011,-2.54499 -15.9931,-13.8257 -19.7035,-23.17237 -1.2808,-3.22661 -1.2697,-3.48541 0.058,-1.33853 0.9051,1.4638 4.1933,5.29037 7.3071,8.50348 5.536,5.71266 5.8157,5.82718 12.6335,5.17208 6.1261,-0.58864 7.5706,-1.34441 11.9053,-6.22905 5.8967,-6.64474 12.5787,-22.07669 15.2556,-35.23256 1.0679,-5.24814 2.3031,-17.94208 2.7449,-28.20875 2.7434,-63.7462 -24.7665,-107.78307 -46.8484,-74.99337 -5.1031,7.57766 -5.8024,7.58046 -2.6395,0.0106 3.6053,-8.62865 12.0673,-18.51147 18.528,-21.63906 5.3428,-2.58641 6.6442,-2.74197 11.0734,-1.3236 2.7605,0.88399 6.4545,2.88336 8.2089,4.44303 6.2414,5.54873 13.1958,18.17152 17.1605,31.14766 6.6858,21.88245 6.9772,23.9789 4.6817,33.68811 -1.4941,6.31932 -2.1115,17.15324 -2.2797,40 l -0.2306,31.33334 -4.1244,9.6501 C 2023.0904,967.21195 2012.976,975.66471 2000,970.5057 Z M 176.10526,964.55556 c 0.064,-1.55326 0.37992,-1.8692 0.80556,-0.80556 0.38516,0.9625 0.33779,2.1125 -0.10526,2.55556 -0.44306,0.44305 -0.75819,-0.34445 -0.7003,-1.75 z m 260,0 c 0.064,-1.55326 0.37992,-1.8692 0.80556,-0.80556 0.38516,0.9625 0.33779,2.1125 -0.10526,2.55556 -0.44306,0.44305 -0.75819,-0.34445 -0.7003,-1.75 z m 1686.66664,0 c 0.064,-1.55326 0.38,-1.8692 0.8056,-0.80556 0.3851,0.9625 0.3378,2.1125 -0.1053,2.55556 -0.443,0.44305 -0.7582,-0.34445 -0.7003,-1.75 z m 260,0 c 0.064,-1.55326 0.38,-1.8692 0.8056,-0.80556 0.3851,0.9625 0.3378,2.1125 -0.1053,2.55556 -0.443,0.44305 -0.7582,-0.34445 -0.7003,-1.75 z m -2205.3333,-8 c 0.064,-1.55326 0.37992,-1.8692 0.80555,-0.80556 0.38516,0.9625 0.33779,2.1125 -0.10526,2.55556 -0.44306,0.44305 -0.75819,-0.34445 -0.70029,-1.75 z m 260,0 c 0.064,-1.55326 0.37992,-1.8692 0.80555,-0.80556 0.38516,0.9625 0.33779,2.1125 -0.10526,2.55556 -0.44306,0.44305 -0.75819,-0.34445 -0.70029,-1.75 z m 1684,0 c 0.064,-1.55326 0.3799,-1.8692 0.8056,-0.80556 0.3851,0.9625 0.3377,2.1125 -0.1053,2.55556 -0.4431,0.44305 -0.7582,-0.34445 -0.7003,-1.75 z m 260,0 c 0.064,-1.55326 0.3799,-1.8692 0.8056,-0.80556 0.3851,0.9625 0.3377,2.1125 -0.1053,2.55556 -0.4431,0.44305 -0.7582,-0.34445 -0.7003,-1.75 z M 178.87719,946.66667 c 0,-1.83334 0.30263,-2.58334 0.67252,-1.66667 0.36988,0.91667 0.36988,2.41667 0,3.33333 -0.36989,0.91667 -0.67252,0.16667 -0.67252,-1.66666 z m 260,0 c 0,-1.83334 0.30263,-2.58334 0.67252,-1.66667 0.36988,0.91667 0.36988,2.41667 0,3.33333 -0.36989,0.91667 -0.67252,0.16667 -0.67252,-1.66666 z m 1681.33331,0 c 0,-1.83334 0.3027,-2.58334 0.6725,-1.66667 0.3699,0.91667 0.3699,2.41667 0,3.33333 -0.3698,0.91667 -0.6725,0.16667 -0.6725,-1.66666 z m 260,0 c 0,-1.83334 0.3027,-2.58334 0.6725,-1.66667 0.3699,0.91667 0.3699,2.41667 0,3.33333 -0.3698,0.91667 -0.6725,0.16667 -0.6725,-1.66666 z m -1941.2839,-54 c 0.0272,-2.2 0.326,-2.93858 0.66405,-1.64129 0.33806,1.29729 0.31583,3.09729 -0.0494,4 -0.36523,0.90271 -0.64182,-0.15871 -0.61465,-2.35871 z m 1681.3333,0 c 0.027,-2.2 0.326,-2.93858 0.6641,-1.64129 0.338,1.29729 0.3158,3.09729 -0.049,4 -0.3652,0.90271 -0.6418,-0.15871 -0.6147,-2.35871 z M 178.87719,892 c 0,-1.83333 0.30263,-2.58333 0.67252,-1.66667 0.36988,0.91667 0.36988,2.41667 0,3.33334 -0.36989,0.91666 -0.67252,0.16666 -0.67252,-1.66667 z m 3.04235,-11.66667 c 2.1656,-32.66976 10.68512,-59.03658 23.60428,-73.05221 16.17115,-17.54363 35.32699,-6.62178 47.34095,26.99183 2.45771,6.87637 4.43499,13.22801 4.39396,14.11477 -0.041,0.88675 -1.70431,-2.88772 -3.69616,-8.38772 -6.48423,-17.90458 -14.54049,-26.67296 -24.49636,-26.66168 -16.45032,0.0186 -30.46377,28.19972 -32.57191,65.50217 l -0.89441,15.82618 h -7.31524 -7.31523 z m 2181.58616,-1.49284 c -2.1081,-37.30245 -16.1216,-65.48354 -32.5719,-65.50217 -9.9559,-0.0113 -18.0121,8.7571 -24.4964,26.66168 -1.9918,5.5 -3.6551,9.27447 -3.6961,8.38772 -0.041,-0.88676 1.9362,-7.2384 4.3939,-14.11477 12.014,-33.61361 31.1698,-44.53546 47.341,-26.99183 12.9191,14.01563 21.4387,40.38245 23.6043,73.05221 l 0.9501,14.33334 h -7.3153 -7.3152 z M 2380.2105,892 c 0,-1.83333 0.3027,-2.58333 0.6725,-1.66667 0.3699,0.91667 0.3699,2.41667 0,3.33334 -0.3698,0.91666 -0.6725,0.16666 -0.6725,-1.66667 z M 177.54386,882.66667 c 0,-1.83334 0.30263,-2.58334 0.67251,-1.66667 0.36989,0.91667 0.36989,2.41667 0,3.33333 -0.36988,0.91667 -0.67251,0.16667 -0.67251,-1.66666 z m 260,0 c 0,-1.83334 0.30263,-2.58334 0.67251,-1.66667 0.36989,0.91667 0.36989,2.41667 0,3.33333 -0.36988,0.91667 -0.67251,0.16667 -0.67251,-1.66666 z m 1684.00004,0 c 0,-1.83334 0.3026,-2.58334 0.6725,-1.66667 0.3699,0.91667 0.3699,2.41667 0,3.33333 -0.3699,0.91667 -0.6725,0.16667 -0.6725,-1.66666 z m 260,0 c 0,-1.83334 0.3026,-2.58334 0.6725,-1.66667 0.3699,0.91667 0.3699,2.41667 0,3.33333 -0.3699,0.91667 -0.6725,0.16667 -0.6725,-1.66666 z M 258.26338,856.33333 c -0.8248,-4.23474 0.49976,-10.51243 6.05305,-28.68811 8.05091,-26.35025 22.07925,-40.47018 34.8898,-35.11759 6.16623,2.57642 11.46044,7.91404 11.46044,11.55442 0,2.23008 -0.52021,2.64419 -2.33334,1.85742 -8.93263,-3.8761 -16.6688,-1.14154 -23.06313,8.15229 -4.73597,6.8835 -11.16727,23.58273 -12.54543,32.57491 -1.45266,9.47827 -1.9194,10.35745 -6.31155,11.88855 -6.15372,2.14521 -7.3635,1.81538 -8.14984,-2.22189 z m 2034.79762,2.13731 c -3.8455,-1.40661 -4.35,-2.43571 -5.7858,-11.80397 -1.3781,-8.99218 -7.8094,-25.69141 -12.5454,-32.57491 -6.3943,-9.29383 -14.1305,-12.02839 -23.0631,-8.15229 -3.679,1.5964 -2.9649,-4.09578 1.0127,-8.07344 5.5036,-5.5036 12.0013,-7.61269 17.7683,-5.76747 6.3385,2.0281 10.1298,5.49733 16.2613,14.88 6.9754,10.67402 16.481,41.89294 15.0276,49.35477 -0.7649,3.92712 -2.5679,4.37131 -8.6756,2.13731 z"
     id="path2-6"
     inkscape:label="noir roue" /><g
     id="g15"
     transform="matrix(0.99817529,0,0,0.99817529,0.18664999,-1513.3947)"><path
       style="display:inline;fill:#88a7cd"
       d="m 0,0 c 854.58413,0.14508697 1709.168,-0.63289921 2563.752,-1.141985 0,163.450635 2.1121,419.053135 2.1121,574.182855 L 0,573.33333 Z"
       id="path36"
       sodipodi:nodetypes="ccccc" /><path
       style="display:inline;fill:#2f4424"
       d="m 0,573.33333 c 393.14264,0 2702.3275,-2.57034 2559.7335,-1.74884 l 0.7207,272.44712 C 2204.57,844.03161 381.04091,848.59238 0,848.49839 Z"
       id="path25"
       sodipodi:nodetypes="ccccc" /><path
       style="display:inline;fill:#282a32"
       d="m 0,700 c 408.82343,-36.43858 739.976,-70.9779 1087.8776,-99.96396 39.931,-3.32692 69.4048,-6.60281 85,-6.70271 53.6275,-0.34354 140.155,-10.76105 289.2153,-2.17994 267.5475,15.40219 834.8231,59.4807 1099.715,80.71872 0,0 -3.1669,199.13781 -3.1025,768.07159 L 0,1440 Z"
       id="path22"
       sodipodi:nodetypes="cssssccc" /><path
       style="display:inline;fill:#0e100e"
       d="m 1220,513.33333 h 177.3765 V 572 H 1220 Z"
       id="path16"
       sodipodi:nodetypes="ccccc" /><path
       style="display:inline;fill:#748192"
       d="m 1165.3333,664.66667 v -7.33334 h 49.185 49.1849 l 0.8862,5 c 0.4873,2.75 1.1946,6.05 1.5715,7.33334 0.6444,2.19336 -2.3593,2.33333 -50.071,2.33333 h -50.7566 z M 1355.3893,667 c 1.8002,-10.67054 -3.1881,-9.66667 48.0339,-9.66667 h 45.9101 V 664.66667 672 h -47.3937 -47.3938 z M 1164,584 v -9.33333 h 144.6667 144.6666 V 584 593.33333 H 1308.6667 1164 Z"
       id="path34"
       sodipodi:nodetypes="ccccsssccsscccccsccccccccc" /><path
       style="display:inline;fill:#787d84"
       d="m 1007.6495,1438.3333 c 0.7201,-0.9166 15.8819,-22.6666 33.6929,-48.3333 17.811,-25.6667 33.8948,-48.7072 35.7419,-51.2011 l 3.3582,-4.5345 4.7788,5.4084 c 3.2894,3.7229 8.1259,6.8888 15.519,10.1586 10.2586,4.5372 11.6427,4.7909 30.8679,5.6584 29.2477,1.3198 55.1903,-1.234 68.3549,-6.729 8.6647,-3.6167 10.8688,-5.2811 16.913,-12.7716 6.4504,-7.9938 7.2497,-9.81 11.1204,-25.2658 l 4.1703,-16.6529 -0.9562,-77.7019 -0.9563,-77.7019 H 1243.1272 1256 V 1133.3333 1128 h 60 60 v 5.1798 5.1798 l 8.4972,-0.6821 8.4972,-0.6821 0.8417,20.5023 c 0.4629,11.2763 1.4777,41.5023 2.2552,67.169 1.2455,41.1175 1.8902,49.6457 5.4216,71.7198 l 4.0079,25.0532 6.6631,10.4684 6.6631,10.4683 10.9501,3.989 c 22.6163,8.2388 28.6768,8.9351 61.9059,7.1118 l 29.7029,-1.6298 14.2971,-6.9237 c 13.1391,-6.3629 14.5708,-7.4315 17.678,-13.1936 1.8595,-3.4484 3.7396,-6.6284 4.1778,-7.0667 0.6272,-0.6272 70.3122,96.2028 80.3648,111.6699 l 2.3831,3.6667 h -316.9833 c -253.396,0 -316.7206,-0.3343 -315.6739,-1.6667 z m 368.6867,-329.6666 c 0.015,-2.9334 0.2879,-3.9764 0.6068,-2.3178 0.3189,1.6585 0.3068,4.0585 -0.027,5.3333 -0.3337,1.2748 -0.5947,-0.082 -0.5799,-3.0155 z m -89.9114,-9.6657 c 17.1003,-0.2112 44.7003,-0.2109 61.3333,5e-4 16.633,0.2115 2.6419,0.3842 -31.0914,0.3839 -33.7334,-2e-4 -47.3422,-0.1732 -30.2419,-0.3844 z m 69.9085,-11.9897 c 4.95,-0.2566 13.05,-0.2566 18,0 4.95,0.2565 0.9,0.4664 -9,0.4664 -9.9,0 -13.95,-0.2099 -9,-0.4664 z"
       id="path33" /><path
       style="display:inline;fill:#757368"
       d="m 1256,697.25667 v -25.41 l 5.5652,0.41 5.5651,0.41 3.0316,13.33333 c 1.6674,7.33333 4.1979,18.58333 5.6234,25 l 2.5918,11.66667 H 1267.1885 1256 Z m 89.4103,23.07666 c 0.042,-1.28333 2.0102,-12.52856 4.3731,-24.9894 3.4638,-18.26626 4.7406,-22.74165 6.5897,-23.09777 2.1045,-0.40527 2.2936,1.65511 2.2936,24.98941 v 25.4311 H 1352 c -5.4896,0 -6.6531,-0.41197 -6.5897,-2.33334 z m -89.4103,-95 v -32 h 51.3333 51.3334 v 8.45314 8.45314 l -47.1386,0.91307 c -25.9263,0.50219 -48.1263,0.53409 -49.3334,0.0709 -1.9087,-0.73244 -2.2329,0.52304 -2.4877,9.63379 -0.44,15.72695 -0.2012,19.05332 2.02,28.14265 l 2.0365,8.33333 H 1259.8817 1256 Z m 101.5439,29.33334 c 0,-1.83334 0.3026,-2.58334 0.6725,-1.66667 0.3699,0.91667 0.3699,2.41667 0,3.33333 -0.3699,0.91667 -0.6725,0.16667 -0.6725,-1.66666 z m -101.5439,-278 v -198 h 37.1259 c 20.4193,0 43.5193,-0.39118 51.3333,-0.86929 l 14.2075,-0.86929 V 375.79738 574.66667 H 1307.3333 1256 Z"
       id="path31"
       sodipodi:nodetypes="ccccsscccccssscscccccccssssccccssssccsscccccc" /><path
       style="display:inline;fill:#55606f"
       d="m 1232,177.19496 c -32.074,-1.39207 -79.7811,-4.78331 -103.3333,-7.3454 -10.2667,-1.11685 -20.0167,-1.77309 -21.6667,-1.45832 -1.65,0.31476 -3,0.133 -3,-0.40391 0,-0.53692 -3.75,-1.3865 -8.3333,-1.88795 -19.6502,-2.14987 -64.1406,-9.00208 -87.3002,-13.44558 C 907.04091,133.21307 826.97652,107.87023 757.33333,73.194093 716.19288,52.709791 687.63473,34.203569 659.48559,9.7869048 L 648.97117,0.66666667 971.81892,0.33062344 c 177.56628,-0.18482377 468.12928,-0.18482377 645.69548,0 l 322.8478,0.33604323 -10.5145,9.12023813 C 1868.241,63.224771 1774.286,106.55488 1654.6667,136.69476 c -14.2501,3.59052 -58.729,13.54806 -66,14.7755 -2.2,0.37138 -10.3,1.83402 -18,3.2503 -98.5104,18.11923 -233.1493,27.05406 -338.6667,22.4744 z"
       id="path30"
       sodipodi:nodetypes="sssssssscsscsssss" /><path
       style="display:inline;fill:#405877"
       d="m 1268,977.47789 v -74.52211 l 25,-0.80575 c 13.75,-0.44317 32.65,-1.06453 42,-1.3808 l 17,-0.57503 V 976.0971 1052 h -42 -42 z m 0.078,-195.81122 -0.078,-59 h 5.3333 c 2.9334,0 5.3334,0.24497 5.3334,0.54438 0,0.29941 2.4,11.08093 5.3333,23.95894 2.9333,12.87801 5.3333,25.92289 5.3333,28.98863 0,3.06573 -1.8065,10.4342 -4.0145,16.37438 -2.208,5.94018 -6.9729,19.20033 -10.5888,29.467 l -6.5744,18.66667 z m 76.2171,31.99612 C 1335.6717,783.03755 1335.263,774.39657 1340.9534,743 l 3.6853,-20.33333 h 3.6808 3.6807 v 58 c 0,31.9 -0.15,57.99825 -0.3333,57.99612 -0.1834,-0.002 -3.5007,-11.25214 -7.3718,-25 z"
       id="path29"
       sodipodi:nodetypes="ccssccccccccssssssccsscccsss" /><path
       style="display:inline;fill:#474e5a"
       d="m 1231.2748,1084.5424 c 0.3438,-2.1316 1.2628,-12.8757 2.0423,-23.8757 0.7794,-11 1.7292,-21.95 2.1105,-24.3334 L 1236.1208,1032 H 1252.0604 1268 v 10 10 h 42 42 v -10.6667 -10.6666 h 16.5023 16.5023 L 1387.785,1043 c 1.5293,6.7833 3.1848,19.3833 3.679,28 l 0.8985,15.6667 h -59.8479 c -32.9164,0 -69.3018,0.3965 -80.8564,0.8758 l -21.0085,0.8713 z"
       id="path28"
       sodipodi:nodetypes="csscccccccccccsscsscc" /><path
       style="display:inline;fill:#353e4b"
       d="M 1262.3767,881.03031 1261.8514,859.33333 1267.5749,844 c 3.1479,-8.43333 9.1836,-25.23333 13.4126,-37.33333 l 7.6891,-22 h 6.6617 6.6617 l 0.4087,-6.38925 0.4086,-6.38926 -6.4086,0.83473 -6.4087,0.83472 -2.9058,-14.44547 c -1.5982,-7.94501 -8.1468,-37.24547 -14.5524,-65.11214 -10.2534,-44.60584 -11.7135,-52.54074 -12.2059,-66.33333 L 1259.7767,612 l 43.1116,-0.0116 c 23.7115,-0.006 46.1847,-0.38083 49.9407,-0.83213 l 6.829,-0.82055 0.5976,12.4988 c 0.3287,6.87434 0.1305,14.5988 -0.4405,17.16547 -2.6994,12.13446 -23.7627,126.36233 -23.7872,129 -0.024,2.59298 -0.7327,3 -5.2225,3 h -5.1945 l -0.9525,10.76046 -0.9526,10.76046 -11.1893,-0.42713 -11.1894,-0.42712 v 5.66666 5.66667 l 10.3334,-0.0204 c 5.6833,-0.0112 11.0512,-0.47679 11.9286,-1.03457 0.8909,-0.56639 1.774,-4.8254 2,-9.64625 l 0.4047,-8.63209 4.9551,-0.41115 c 4.4808,-0.37179 5.0347,-0.0528 5.7872,3.33334 1.2573,5.65785 13.9736,51.45358 14.9234,53.74447 0.4561,1.1 3.2679,10.5235 6.2484,20.94111 4.4878,15.68554 5.3442,20.52936 4.9824,28.1817 l -0.4368,9.24061 -43.5632,0.84164 c -23.9597,0.46291 -46.3602,1.14478 -49.7788,1.51528 l -6.2157,0.67362 z"
       id="path26"
       sodipodi:nodetypes="ccsscccccccsssccscsssscccccccssscssssscsscc" /><path
       style="display:inline;fill:#1d2c40"
       d="m 1252.5647,1094.6752 c 20.5336,0 94.4933,-0.1239 125.2752,-0.1239 8.6243,0 2.626,24.3177 2.626,32.9334 l -127.9012,0.3435 z"
       id="path23"
       sodipodi:nodetypes="csccc" /><path
       style="display:inline;fill:#242933"
       d="m 1238.2473,385.40614 -14.4193,-6.34886 -20.7763,-22.52864 c -11.427,-12.39075 -34.9383,-38.09381 -52.2473,-57.11791 -27.1782,-29.87112 -55.5071,-60.83874 -115.766,-126.54944 -7.4956,-8.17371 -13.6456,-15.35172 -13.6667,-15.95114 -0.021,-0.59942 1.0116,-0.78654 2.295,-0.41583 2.5717,0.74288 37.3722,6.45313 39.9413,6.55379 0.8844,0.0346 1.3743,0.44126 1.0885,0.90357 -0.4987,0.80689 24.3267,27.22256 107.9702,114.88647 21.2666,22.28889 45.1391,47.49573 53.0499,56.01519 13.5541,14.59697 14.8415,15.61853 22.3333,17.72062 l 7.9501,2.23068 v 18.59768 c 0,14.05459 -0.4071,18.56776 -1.6667,18.47518 -0.9166,-0.0674 -8.1553,-2.97948 -16.086,-6.47136 z m 120.4194,-12.59152 v -19.3785 l 5.6666,-1.43326 c 8.812,-2.22878 9.2157,-2.53493 21.8014,-16.53148 6.5259,-7.25741 27.7653,-30.60594 47.1986,-51.88563 19.4334,-21.27969 52.5788,-57.64181 73.6564,-80.80472 30.5679,-33.5919 39.2021,-42.3282 42.6667,-43.17107 7.7596,-1.88773 38.9961,-7.29491 39.5065,-6.83874 0.273,0.24392 -7.827,9.68792 -18,20.98665 -10.1729,11.29874 -35.2962,39.32201 -55.8296,62.27395 -20.5333,22.95193 -48.6578,54.3842 -62.4989,69.84948 -13.8411,15.46529 -33.5357,37.47445 -43.7656,48.90925 l -18.6,20.79054 -15.9011,8.30601 -15.901,8.30601 z"
       id="path21"
       sodipodi:nodetypes="scsssssssssscsssccsssssssssscccc" /><path
       style="display:inline;fill:#202632"
       d="m 1185.3333,593.33333 h 28 v 64 h -28 z m 221.3334,0 H 1436 v 64 h -29.3333 z"
       id="path20"
       sodipodi:nodetypes="cccccccccc" /><path
       style="display:inline;fill:#171c23"
       d="m 956,412.7897 v -60.54364 l 8.0402,-70.45636 c 5.83333,-51.11746 9.44361,-77.32992 13.15314,-95.4984 2.81212,-13.77311 5.42397,-25.35305 5.80412,-25.7332 0.38014,-0.38015 9.01123,-1.04102 19.18024,-1.46861 l 18.489,-0.77744 18.2396,20.00228 18.2397,20.00228 -2.5042,11.45934 c -1.3773,6.30264 -4.9065,32.6314 -7.8426,58.50836 -4.7331,41.71346 -5.4433,52.11442 -6.263,91.71569 l -0.9246,44.66667 L 1001.6972,439 c -31.34634,28.38556 -38.58862,34.33333 -41.80585,34.33333 H 956 Z m 653.74,20.72773 c -22.8763,-17.33458 -41.9864,-31.92749 -42.4668,-32.42867 -0.4804,-0.50118 -1.434,-19.70118 -2.1191,-42.66666 -1.0921,-36.60438 -1.9799,-47.67683 -7.197,-89.75543 -3.2732,-26.4 -7.057,-52.21114 -8.4085,-57.35808 l -2.4573,-9.35807 21.4544,-24.22413 21.4543,-24.22414 19.2704,0.24887 19.2704,0.24888 6.3948,27.33333 c 5.5024,23.51969 7.5869,37.00698 14.9398,96.66667 l 8.545,69.33333 0.8105,46.66667 c 0.4458,25.66667 1.1725,52.21667 1.615,59 l 0.8046,12.33333 -5.1586,-0.14923 c -4.5787,-0.13246 -9.8344,-3.69234 -46.7519,-31.66667 z m -72.4067,-269.1295 c 0,-1.70777 1.1107,-3.03402 2.9418,-3.51287 4.1285,-1.07963 4.2053,-0.45784 0.3863,3.12988 -3.2351,3.03921 -3.3281,3.04991 -3.3281,0.38299 z"
       id="path18"
       sodipodi:nodetypes="ccsssscccssscssccssssscccccsscsscssssss" /><path
       style="display:inline;fill:#0e1015"
       d="m 1129.9433,1354.5704 c -17.7396,-1.0566 -19.2984,-1.3812 -29.6636,-6.1761 -9.9495,-4.6027 -11.8396,-6.1327 -20.8749,-16.8972 -8.7479,-10.4221 -11.6211,-12.6997 -11.939,-20.6666 -5.3938,-135.1882 -6.8023,-256.1197 -5.6493,-313.49717 0.3776,-18.79247 4.4069,-40.9 5.5712,-49.33333 2.0929,-15.16077 2.2072,-15.47137 10.1627,-27.59904 7.5144,-11.45512 8.7539,-12.6667 18.7556,-18.33334 L 1107.0156,896 l 40.1588,0.007 40.1589,0.007 11.6769,6.07113 c 10.2643,5.33669 12.7241,7.36814 20.3334,16.79269 l 8.6564,10.72157 0.028,16.86672 c -1.8847,128.03509 0.9736,177.06179 3.3494,346.20009 l -4.1811,16.8945 c -3.6269,14.6553 -4.9553,17.9247 -10.0222,24.6667 -4.7717,6.3492 -7.6505,8.6526 -15.7243,12.5815 -8.8275,4.2956 -11.7471,4.9799 -27.3333,6.4064 -9.5976,0.8785 -19.2501,1.7935 -21.4501,2.0335 -2.2,0.24 -12.4256,-0.066 -22.7234,-0.6789 z m 319.7127,-3.3795 c -6.4108,-1.545 -15.856,-4.4201 -20.9893,-6.3891 -9.0505,-3.4716 -9.5287,-3.8898 -15.7782,-13.7983 -6.3778,-10.1118 -6.485,-10.4677 -10.3072,-34.2 -3.4729,-21.5641 -4.0732,-30.1729 -5.954,-85.3927 -3.4937,-102.5721 -4.5974,-143.0083 -5.4427,-199.4108 l -0.8094,-54 4.2895,-15.33333 c 2.9759,-10.63771 6.185,-18.51644 10.4791,-25.72761 5.8712,-9.85967 6.7622,-10.70707 17.3234,-16.4761 l 11.1338,-6.08184 22.1995,-2.07122 c 18.774,-1.75161 25.0751,-1.81676 40.8348,-0.4222 18.2184,1.61211 18.9043,1.78841 30.6574,7.88065 l 12.022,6.23165 8.9676,14 8.9676,14 8.0138,68.6667 c 6.8173,58.4141 8.3151,75.5248 10.0317,114.5992 2.8797,65.55 0.6477,124.0045 -6.5448,171.4008 -2.7213,17.9325 -3.5577,20.8959 -8.0911,28.6666 -2.7809,4.7667 -6.5649,11.3004 -8.4091,14.5193 -2.9569,5.1614 -4.9489,6.615 -16.8652,12.3073 l -13.5123,6.4547 -22.6031,1.339 c -37.0297,2.1937 -37.3683,2.1885 -49.6138,-0.7627 z"
       id="path17"
       sodipodi:nodetypes="cssssssscccsscccsssssccsssssscssscssscccsssssscss" /><path
       style="display:inline;fill:#0a0c09"
       d="m 1154.2094,342.68612 c -19.5574,-7.63998 -32.9667,-27.13126 -33.0327,-48.01538 -0.03,-9.485 2.1175,-20.00407 4.0838,-20.00407 1.1764,0 61.7497,65.82392 62.4607,67.8749 1.264,3.64658 -24.2651,3.7567 -33.5118,0.14455 z m 272.6402,-2.46114 c -1.3853,-0.94151 5.2681,-9.17024 28,-34.62917 16.3994,-18.36682 30.2577,-32.96889 30.7964,-32.44906 0.5386,0.51984 1.4549,4.52448 2.0362,8.8992 3.0333,22.82569 -7.2079,43.6222 -26.5876,53.99083 -7.452,3.98696 -9.8176,4.56204 -20.4279,4.96614 -6.6,0.25136 -12.8177,-0.0987 -13.8171,-0.77794 z M 1181.1932,285.9128 c -18.6229,-19.5621 -34.0415,-36.0402 -34.2636,-36.61799 -0.2221,-0.57779 2.9505,-2.3055 7.05,-3.83934 10.0397,-3.75631 25.8791,-3.81193 35.637,-0.12513 19.9113,7.52296 33.1982,27.00208 33.1982,48.66966 0,9.09039 -3.563,23.28154 -6.6105,26.32904 -0.6461,0.64606 -16.009,-14.45582 -35.0111,-34.41624 z m 212.9641,27.19477 c -12.1647,-24.86383 -2.221,-56.02826 22.0815,-69.20473 8.0757,-4.37855 9.0129,-4.56951 22.4279,-4.56951 12.4614,0 14.7097,0.37592 20.4584,3.42064 l 6.4584,3.42064 -29.6188,32.57936 c -16.2904,17.91865 -31.571,34.59374 -33.957,37.05575 l -4.3383,4.47639 z m -243.4906,-80.14199 c -18.3353,-6.27402 -32.3894,-17.93037 -39.7466,-32.96558 -4.0889,-8.35626 -6.6963,-20.86199 -5.8555,-28.08461 0.3966,-3.40695 0.4266,-3.41463 9.3333,-2.38564 27.1757,3.13962 55.3093,5.27767 113.4309,8.62032 l 13.8288,0.79531 -0.8314,6.19398 c -2.7837,20.74033 -23.0564,41.58264 -47.4015,48.73347 -11.0787,3.25412 -31.8871,2.8126 -42.758,-0.90725 z m 262.6666,-2.1493 c -24.3126,-7.86949 -43.6665,-27.59655 -47.3624,-48.27553 l -0.8565,-4.79259 19.7761,-0.92171 c 25.1863,-1.17387 61.2895,-4.15488 91.1095,-7.52282 31.781,-3.58942 28.4669,-4.44762 27.7208,7.17835 -1.5703,24.46798 -21.2746,46.48171 -48.9628,54.70144 -9.9969,2.96776 -31.7163,2.77527 -41.4247,-0.36714 z"
       id="path15" /></g></g></g></svg>
